<svg xmlns="http://www.w3.org/2000/svg" viewBox="0 0 960 200" width="960" height="200" role="img" aria-label="CANopen live frame monitor">
  <defs>
    <style>
      .c-bg    { fill: #1A1814; }
      .c-subbg { fill: #221E18; }
      .c-border{ fill: none; stroke: #3A352C; stroke-width: 1; }
      .c-head  { font-family: 'IBM Plex Mono', Menlo, Consolas, monospace; font-size: 11px; fill: #A89968; font-weight: 700; }
      .c-ink   { font-family: 'IBM Plex Mono', Menlo, Consolas, monospace; font-size: 11px; fill: #E8DCC4; }
      .c-dim   { font-family: 'IBM Plex Mono', Menlo, Consolas, monospace; font-size: 11px; fill: #A89968; }
      .c-id    { font-family: 'IBM Plex Mono', Menlo, Consolas, monospace; font-size: 11px; fill: #FFB83D; font-weight: 700; }
      .c-type  { font-family: 'IBM Plex Mono', Menlo, Consolas, monospace; font-size: 11px; font-weight: 700; }
      .c-ascii { font-family: 'IBM Plex Mono', Menlo, Consolas, monospace; font-size: 11px; fill: #4FD97F; }
      .c-foot  { font-family: 'IBM Plex Mono', Menlo, Consolas, monospace; font-size: 11px; fill: #E8DCC4; }
      .c-foot-dim { font-family: 'IBM Plex Mono', Menlo, Consolas, monospace; font-size: 11px; fill: #A89968; }
    </style>
    <clipPath id="c-clip">
      <rect x="0" y="24" width="960" height="156"/>
    </clipPath>
  </defs>

  <rect class="c-bg" width="960" height="200"/>
  <rect class="c-border" x="0.5" y="0.5" width="959" height="199"/>

  <!-- header row -->
  <rect class="c-subbg" x="0" y="0" width="960" height="24"/>
  <line x1="0" y1="24" x2="960" y2="24" stroke="#3A352C" stroke-width="1"/>
  <text class="c-head" x="12"   y="16">#</text>
  <text class="c-head" x="44"    y="16">timestamp</text>
  <text class="c-head" x="150"    y="16">id</text>
  <text class="c-head" x="210"  y="16">type</text>
  <text class="c-head" x="290"   y="16">len</text>
  <text class="c-head" x="326"  y="16">data</text>
  <text class="c-head" x="690" y="16">ascii</text>
  <text class="c-head" x="820"  y="16">node</text>

  <!-- scrolling rows -->
  <g clip-path="url(#c-clip)">
    <g transform="translate(0 24)">
      <animateTransform attributeName="transform" type="translate" from="0 24" to="0 -288" dur="22s" repeatCount="indefinite"/>
      <g>
      <text x="12"  y="13" class="c-dim">001</text><text x="44"   y="13" class="c-ink">03:28:17.237</text><text x="150"   y="13" class="c-id">0x201</text><text x="210" y="13" fill="#4FC3FF" class="c-type">PDO1-Rx</text><text x="290"  y="13" class="c-dim">8</text><text x="326" y="13" class="c-ink">45 3B 61 E7 6A B0 D0 B9</text><text x="690" y="13" class="c-ascii">E;a·j···</text><text x="820" y="13" class="c-dim">0x1A</text>
      <rect x="0" y="16" width="960" height="13" fill="#2A251E"/><text x="12"  y="26" class="c-dim">002</text><text x="44"   y="26" class="c-ink">03:28:17.269</text><text x="150"   y="26" class="c-id">0x401</text><text x="210" y="26" fill="#4FC3FF" class="c-type">PDO3-Rx</text><text x="290"  y="26" class="c-dim">6</text><text x="326" y="26" class="c-ink">33 0E 7D 35 EB 81</text><text x="690" y="26" class="c-ascii">3·}5··</text><text x="820" y="26" class="c-dim">0x05</text>
      <text x="12"  y="39" class="c-dim">003</text><text x="44"   y="39" class="c-ink">03:28:17.315</text><text x="150"   y="39" class="c-id">0x701</text><text x="210" y="39" fill="#FF5C3A" class="c-type">HB</text><text x="290"  y="39" class="c-dim">1</text><text x="326" y="39" class="c-ink">35</text><text x="690" y="39" class="c-ascii">5</text><text x="820" y="39" class="c-dim">0x1A</text>
      <rect x="0" y="42" width="960" height="13" fill="#2A251E"/><text x="12"  y="52" class="c-dim">004</text><text x="44"   y="52" class="c-ink">03:28:17.346</text><text x="150"   y="52" class="c-id">0x201</text><text x="210" y="52" fill="#4FC3FF" class="c-type">PDO1-Rx</text><text x="290"  y="52" class="c-dim">5</text><text x="326" y="52" class="c-ink">4B AE CC 37 89</text><text x="690" y="52" class="c-ascii">K··7·</text><text x="820" y="52" class="c-dim">0x1A</text>
      <text x="12"  y="65" class="c-dim">005</text><text x="44"   y="65" class="c-ink">03:28:17.417</text><text x="150"   y="65" class="c-id">0x601</text><text x="210" y="65" fill="#FFB83D" class="c-type">SDO-Rx</text><text x="290"  y="65" class="c-dim">1</text><text x="326" y="65" class="c-ink">00</text><text x="690" y="65" class="c-ascii">·</text><text x="820" y="65" class="c-dim">0x1A</text>
      <rect x="0" y="68" width="960" height="13" fill="#2A251E"/><text x="12"  y="78" class="c-dim">006</text><text x="44"   y="78" class="c-ink">03:28:17.491</text><text x="150"   y="78" class="c-id">0x601</text><text x="210" y="78" fill="#FFB83D" class="c-type">SDO-Rx</text><text x="290"  y="78" class="c-dim">8</text><text x="326" y="78" class="c-ink">D1 AA E1 B4 AC 07 0E 25</text><text x="690" y="78" class="c-ascii">·······%</text><text x="820" y="78" class="c-dim">0x1A</text>
      <text x="12"  y="91" class="c-dim">007</text><text x="44"   y="91" class="c-ink">03:28:17.542</text><text x="150"   y="91" class="c-id">0x581</text><text x="210" y="91" fill="#FFB83D" class="c-type">SDO-Tx</text><text x="290"  y="91" class="c-dim">1</text><text x="326" y="91" class="c-ink">91</text><text x="690" y="91" class="c-ascii">·</text><text x="820" y="91" class="c-dim">0x1A</text>
      <rect x="0" y="94" width="960" height="13" fill="#2A251E"/><text x="12"  y="104" class="c-dim">008</text><text x="44"   y="104" class="c-ink">03:28:17.632</text><text x="150"   y="104" class="c-id">0x080</text><text x="210" y="104" fill="#4FC3FF" class="c-type">SYNC</text><text x="290"  y="104" class="c-dim">7</text><text x="326" y="104" class="c-ink">08 DB 51 A2 F5 4C 52</text><text x="690" y="104" class="c-ascii">··Q··LR</text><text x="820" y="104" class="c-dim">0x05</text>
      <text x="12"  y="117" class="c-dim">009</text><text x="44"   y="117" class="c-ink">03:28:17.715</text><text x="150"   y="117" class="c-id">0x701</text><text x="210" y="117" fill="#FF5C3A" class="c-type">HB</text><text x="290"  y="117" class="c-dim">1</text><text x="326" y="117" class="c-ink">CA</text><text x="690" y="117" class="c-ascii">·</text><text x="820" y="117" class="c-dim">0x05</text>
      <rect x="0" y="120" width="960" height="13" fill="#2A251E"/><text x="12"  y="130" class="c-dim">010</text><text x="44"   y="130" class="c-ink">03:28:17.758</text><text x="150"   y="130" class="c-id">0x301</text><text x="210" y="130" fill="#4FC3FF" class="c-type">PDO2-Rx</text><text x="290"  y="130" class="c-dim">7</text><text x="326" y="130" class="c-ink">82 E9 03 0B 04 42 8A</text><text x="690" y="130" class="c-ascii">·····B·</text><text x="820" y="130" class="c-dim">0x11</text>
      <text x="12"  y="143" class="c-dim">011</text><text x="44"   y="143" class="c-ink">03:28:17.839</text><text x="150"   y="143" class="c-id">0x381</text><text x="210" y="143" fill="#4FD97F" class="c-type">PDO3-Tx</text><text x="290"  y="143" class="c-dim">4</text><text x="326" y="143" class="c-ink">9C F7 C0 1B</text><text x="690" y="143" class="c-ascii">····</text><text x="820" y="143" class="c-dim">0x1A</text>
      <rect x="0" y="146" width="960" height="13" fill="#2A251E"/><text x="12"  y="156" class="c-dim">012</text><text x="44"   y="156" class="c-ink">03:28:17.922</text><text x="150"   y="156" class="c-id">0x201</text><text x="210" y="156" fill="#4FC3FF" class="c-type">PDO1-Rx</text><text x="290"  y="156" class="c-dim">1</text><text x="326" y="156" class="c-ink">B1</text><text x="690" y="156" class="c-ascii">·</text><text x="820" y="156" class="c-dim">0x1A</text>
      <text x="12"  y="169" class="c-dim">013</text><text x="44"   y="169" class="c-ink">03:28:17.935</text><text x="150"   y="169" class="c-id">0x601</text><text x="210" y="169" fill="#FFB83D" class="c-type">SDO-Rx</text><text x="290"  y="169" class="c-dim">7</text><text x="326" y="169" class="c-ink">E8 9F 8B 28 92 3E 72</text><text x="690" y="169" class="c-ascii">···(·.r</text><text x="820" y="169" class="c-dim">0x1A</text>
      <rect x="0" y="172" width="960" height="13" fill="#2A251E"/><text x="12"  y="182" class="c-dim">014</text><text x="44"   y="182" class="c-ink">03:28:17.965</text><text x="150"   y="182" class="c-id">0x581</text><text x="210" y="182" fill="#FFB83D" class="c-type">SDO-Tx</text><text x="290"  y="182" class="c-dim">3</text><text x="326" y="182" class="c-ink">9B 00 C5</text><text x="690" y="182" class="c-ascii">···</text><text x="820" y="182" class="c-dim">0x11</text>
      <text x="12"  y="195" class="c-dim">015</text><text x="44"   y="195" class="c-ink">03:28:18.023</text><text x="150"   y="195" class="c-id">0x581</text><text x="210" y="195" fill="#FFB83D" class="c-type">SDO-Tx</text><text x="290"  y="195" class="c-dim">5</text><text x="326" y="195" class="c-ink">1B 37 39 E3 F3</text><text x="690" y="195" class="c-ascii">·79··</text><text x="820" y="195" class="c-dim">0x11</text>
      <rect x="0" y="198" width="960" height="13" fill="#2A251E"/><text x="12"  y="208" class="c-dim">016</text><text x="44"   y="208" class="c-ink">03:28:18.111</text><text x="150"   y="208" class="c-id">0x080</text><text x="210" y="208" fill="#4FC3FF" class="c-type">SYNC</text><text x="290"  y="208" class="c-dim">4</text><text x="326" y="208" class="c-ink">F6 8B CF 74</text><text x="690" y="208" class="c-ascii">···t</text><text x="820" y="208" class="c-dim">0x02</text>
      <text x="12"  y="221" class="c-dim">017</text><text x="44"   y="221" class="c-ink">03:28:18.184</text><text x="150"   y="221" class="c-id">0x181</text><text x="210" y="221" fill="#4FD97F" class="c-type">PDO1-Tx</text><text x="290"  y="221" class="c-dim">8</text><text x="326" y="221" class="c-ink">68 65 6C 6C 6F 20 66 72</text><text x="690" y="221" class="c-ascii">hello fr</text><text x="820" y="221" class="c-dim">0x1A</text>
      <rect x="0" y="224" width="960" height="13" fill="#2A251E"/><text x="12"  y="234" class="c-dim">018</text><text x="44"   y="234" class="c-ink">03:28:18.276</text><text x="150"   y="234" class="c-id">0x181</text><text x="210" y="234" fill="#4FD97F" class="c-type">PDO1-Tx</text><text x="290"  y="234" class="c-dim">8</text><text x="326" y="234" class="c-ink">6F 6D 20 6C 6F 72 64 77</text><text x="690" y="234" class="c-ascii">om lordw</text><text x="820" y="234" class="c-dim">0x1A</text>
      <text x="12"  y="247" class="c-dim">019</text><text x="44"   y="247" class="c-ink">03:28:18.316</text><text x="150"   y="247" class="c-id">0x181</text><text x="210" y="247" fill="#4FD97F" class="c-type">PDO1-Tx</text><text x="290"  y="247" class="c-dim">8</text><text x="326" y="247" class="c-ink">61 72 65 2E 64 65 20 3A</text><text x="690" y="247" class="c-ascii">are.de :</text><text x="820" y="247" class="c-dim">0x1A</text>
      <rect x="0" y="250" width="960" height="13" fill="#2A251E"/><text x="12"  y="260" class="c-dim">020</text><text x="44"   y="260" class="c-ink">03:28:18.358</text><text x="150"   y="260" class="c-id">0x181</text><text x="210" y="260" fill="#4FD97F" class="c-type">PDO1-Tx</text><text x="290"  y="260" class="c-dim">1</text><text x="326" y="260" class="c-ink">29</text><text x="690" y="260" class="c-ascii">)</text><text x="820" y="260" class="c-dim">0x05</text>
      <text x="12"  y="273" class="c-dim">021</text><text x="44"   y="273" class="c-ink">03:28:18.393</text><text x="150"   y="273" class="c-id">0x701</text><text x="210" y="273" fill="#FF5C3A" class="c-type">HB</text><text x="290"  y="273" class="c-dim">8</text><text x="326" y="273" class="c-ink">BD FF A1 80 00 31 96 7E</text><text x="690" y="273" class="c-ascii">·····1·~</text><text x="820" y="273" class="c-dim">0x1A</text>
      <rect x="0" y="276" width="960" height="13" fill="#2A251E"/><text x="12"  y="286" class="c-dim">022</text><text x="44"   y="286" class="c-ink">03:28:18.435</text><text x="150"   y="286" class="c-id">0x000</text><text x="210" y="286" fill="#B77FFF" class="c-type">NMT</text><text x="290"  y="286" class="c-dim">4</text><text x="326" y="286" class="c-ink">73 35 50 DE</text><text x="690" y="286" class="c-ascii">s5P·</text><text x="820" y="286" class="c-dim">0x1A</text>
      <text x="12"  y="299" class="c-dim">023</text><text x="44"   y="299" class="c-ink">03:28:18.482</text><text x="150"   y="299" class="c-id">0x601</text><text x="210" y="299" fill="#FFB83D" class="c-type">SDO-Rx</text><text x="290"  y="299" class="c-dim">5</text><text x="326" y="299" class="c-ink">C5 D3 4B 26 86</text><text x="690" y="299" class="c-ascii">··K.·</text><text x="820" y="299" class="c-dim">0x11</text>
      <rect x="0" y="302" width="960" height="13" fill="#2A251E"/><text x="12"  y="312" class="c-dim">024</text><text x="44"   y="312" class="c-ink">03:28:18.545</text><text x="150"   y="312" class="c-id">0x281</text><text x="210" y="312" fill="#4FD97F" class="c-type">PDO2-Tx</text><text x="290"  y="312" class="c-dim">7</text><text x="326" y="312" class="c-ink">B8 28 24 C3 25 34 79</text><text x="690" y="312" class="c-ascii">·($·%4y</text><text x="820" y="312" class="c-dim">0x1A</text>
      </g>
      <g transform="translate(0 312)">
      <text x="12"  y="13" class="c-dim">001</text><text x="44"   y="13" class="c-ink">03:28:17.237</text><text x="150"   y="13" class="c-id">0x201</text><text x="210" y="13" fill="#4FC3FF" class="c-type">PDO1-Rx</text><text x="290"  y="13" class="c-dim">8</text><text x="326" y="13" class="c-ink">45 3B 61 E7 6A B0 D0 B9</text><text x="690" y="13" class="c-ascii">E;a·j···</text><text x="820" y="13" class="c-dim">0x1A</text>
      <rect x="0" y="16" width="960" height="13" fill="#2A251E"/><text x="12"  y="26" class="c-dim">002</text><text x="44"   y="26" class="c-ink">03:28:17.269</text><text x="150"   y="26" class="c-id">0x401</text><text x="210" y="26" fill="#4FC3FF" class="c-type">PDO3-Rx</text><text x="290"  y="26" class="c-dim">6</text><text x="326" y="26" class="c-ink">33 0E 7D 35 EB 81</text><text x="690" y="26" class="c-ascii">3·}5··</text><text x="820" y="26" class="c-dim">0x05</text>
      <text x="12"  y="39" class="c-dim">003</text><text x="44"   y="39" class="c-ink">03:28:17.315</text><text x="150"   y="39" class="c-id">0x701</text><text x="210" y="39" fill="#FF5C3A" class="c-type">HB</text><text x="290"  y="39" class="c-dim">1</text><text x="326" y="39" class="c-ink">35</text><text x="690" y="39" class="c-ascii">5</text><text x="820" y="39" class="c-dim">0x1A</text>
      <rect x="0" y="42" width="960" height="13" fill="#2A251E"/><text x="12"  y="52" class="c-dim">004</text><text x="44"   y="52" class="c-ink">03:28:17.346</text><text x="150"   y="52" class="c-id">0x201</text><text x="210" y="52" fill="#4FC3FF" class="c-type">PDO1-Rx</text><text x="290"  y="52" class="c-dim">5</text><text x="326" y="52" class="c-ink">4B AE CC 37 89</text><text x="690" y="52" class="c-ascii">K··7·</text><text x="820" y="52" class="c-dim">0x1A</text>
      <text x="12"  y="65" class="c-dim">005</text><text x="44"   y="65" class="c-ink">03:28:17.417</text><text x="150"   y="65" class="c-id">0x601</text><text x="210" y="65" fill="#FFB83D" class="c-type">SDO-Rx</text><text x="290"  y="65" class="c-dim">1</text><text x="326" y="65" class="c-ink">00</text><text x="690" y="65" class="c-ascii">·</text><text x="820" y="65" class="c-dim">0x1A</text>
      <rect x="0" y="68" width="960" height="13" fill="#2A251E"/><text x="12"  y="78" class="c-dim">006</text><text x="44"   y="78" class="c-ink">03:28:17.491</text><text x="150"   y="78" class="c-id">0x601</text><text x="210" y="78" fill="#FFB83D" class="c-type">SDO-Rx</text><text x="290"  y="78" class="c-dim">8</text><text x="326" y="78" class="c-ink">D1 AA E1 B4 AC 07 0E 25</text><text x="690" y="78" class="c-ascii">·······%</text><text x="820" y="78" class="c-dim">0x1A</text>
      <text x="12"  y="91" class="c-dim">007</text><text x="44"   y="91" class="c-ink">03:28:17.542</text><text x="150"   y="91" class="c-id">0x581</text><text x="210" y="91" fill="#FFB83D" class="c-type">SDO-Tx</text><text x="290"  y="91" class="c-dim">1</text><text x="326" y="91" class="c-ink">91</text><text x="690" y="91" class="c-ascii">·</text><text x="820" y="91" class="c-dim">0x1A</text>
      <rect x="0" y="94" width="960" height="13" fill="#2A251E"/><text x="12"  y="104" class="c-dim">008</text><text x="44"   y="104" class="c-ink">03:28:17.632</text><text x="150"   y="104" class="c-id">0x080</text><text x="210" y="104" fill="#4FC3FF" class="c-type">SYNC</text><text x="290"  y="104" class="c-dim">7</text><text x="326" y="104" class="c-ink">08 DB 51 A2 F5 4C 52</text><text x="690" y="104" class="c-ascii">··Q··LR</text><text x="820" y="104" class="c-dim">0x05</text>
      <text x="12"  y="117" class="c-dim">009</text><text x="44"   y="117" class="c-ink">03:28:17.715</text><text x="150"   y="117" class="c-id">0x701</text><text x="210" y="117" fill="#FF5C3A" class="c-type">HB</text><text x="290"  y="117" class="c-dim">1</text><text x="326" y="117" class="c-ink">CA</text><text x="690" y="117" class="c-ascii">·</text><text x="820" y="117" class="c-dim">0x05</text>
      <rect x="0" y="120" width="960" height="13" fill="#2A251E"/><text x="12"  y="130" class="c-dim">010</text><text x="44"   y="130" class="c-ink">03:28:17.758</text><text x="150"   y="130" class="c-id">0x301</text><text x="210" y="130" fill="#4FC3FF" class="c-type">PDO2-Rx</text><text x="290"  y="130" class="c-dim">7</text><text x="326" y="130" class="c-ink">82 E9 03 0B 04 42 8A</text><text x="690" y="130" class="c-ascii">·····B·</text><text x="820" y="130" class="c-dim">0x11</text>
      <text x="12"  y="143" class="c-dim">011</text><text x="44"   y="143" class="c-ink">03:28:17.839</text><text x="150"   y="143" class="c-id">0x381</text><text x="210" y="143" fill="#4FD97F" class="c-type">PDO3-Tx</text><text x="290"  y="143" class="c-dim">4</text><text x="326" y="143" class="c-ink">9C F7 C0 1B</text><text x="690" y="143" class="c-ascii">····</text><text x="820" y="143" class="c-dim">0x1A</text>
      <rect x="0" y="146" width="960" height="13" fill="#2A251E"/><text x="12"  y="156" class="c-dim">012</text><text x="44"   y="156" class="c-ink">03:28:17.922</text><text x="150"   y="156" class="c-id">0x201</text><text x="210" y="156" fill="#4FC3FF" class="c-type">PDO1-Rx</text><text x="290"  y="156" class="c-dim">1</text><text x="326" y="156" class="c-ink">B1</text><text x="690" y="156" class="c-ascii">·</text><text x="820" y="156" class="c-dim">0x1A</text>
      <text x="12"  y="169" class="c-dim">013</text><text x="44"   y="169" class="c-ink">03:28:17.935</text><text x="150"   y="169" class="c-id">0x601</text><text x="210" y="169" fill="#FFB83D" class="c-type">SDO-Rx</text><text x="290"  y="169" class="c-dim">7</text><text x="326" y="169" class="c-ink">E8 9F 8B 28 92 3E 72</text><text x="690" y="169" class="c-ascii">···(·.r</text><text x="820" y="169" class="c-dim">0x1A</text>
      <rect x="0" y="172" width="960" height="13" fill="#2A251E"/><text x="12"  y="182" class="c-dim">014</text><text x="44"   y="182" class="c-ink">03:28:17.965</text><text x="150"   y="182" class="c-id">0x581</text><text x="210" y="182" fill="#FFB83D" class="c-type">SDO-Tx</text><text x="290"  y="182" class="c-dim">3</text><text x="326" y="182" class="c-ink">9B 00 C5</text><text x="690" y="182" class="c-ascii">···</text><text x="820" y="182" class="c-dim">0x11</text>
      <text x="12"  y="195" class="c-dim">015</text><text x="44"   y="195" class="c-ink">03:28:18.023</text><text x="150"   y="195" class="c-id">0x581</text><text x="210" y="195" fill="#FFB83D" class="c-type">SDO-Tx</text><text x="290"  y="195" class="c-dim">5</text><text x="326" y="195" class="c-ink">1B 37 39 E3 F3</text><text x="690" y="195" class="c-ascii">·79··</text><text x="820" y="195" class="c-dim">0x11</text>
      <rect x="0" y="198" width="960" height="13" fill="#2A251E"/><text x="12"  y="208" class="c-dim">016</text><text x="44"   y="208" class="c-ink">03:28:18.111</text><text x="150"   y="208" class="c-id">0x080</text><text x="210" y="208" fill="#4FC3FF" class="c-type">SYNC</text><text x="290"  y="208" class="c-dim">4</text><text x="326" y="208" class="c-ink">F6 8B CF 74</text><text x="690" y="208" class="c-ascii">···t</text><text x="820" y="208" class="c-dim">0x02</text>
      <text x="12"  y="221" class="c-dim">017</text><text x="44"   y="221" class="c-ink">03:28:18.184</text><text x="150"   y="221" class="c-id">0x181</text><text x="210" y="221" fill="#4FD97F" class="c-type">PDO1-Tx</text><text x="290"  y="221" class="c-dim">8</text><text x="326" y="221" class="c-ink">68 65 6C 6C 6F 20 66 72</text><text x="690" y="221" class="c-ascii">hello fr</text><text x="820" y="221" class="c-dim">0x1A</text>
      <rect x="0" y="224" width="960" height="13" fill="#2A251E"/><text x="12"  y="234" class="c-dim">018</text><text x="44"   y="234" class="c-ink">03:28:18.276</text><text x="150"   y="234" class="c-id">0x181</text><text x="210" y="234" fill="#4FD97F" class="c-type">PDO1-Tx</text><text x="290"  y="234" class="c-dim">8</text><text x="326" y="234" class="c-ink">6F 6D 20 6C 6F 72 64 77</text><text x="690" y="234" class="c-ascii">om lordw</text><text x="820" y="234" class="c-dim">0x1A</text>
      <text x="12"  y="247" class="c-dim">019</text><text x="44"   y="247" class="c-ink">03:28:18.316</text><text x="150"   y="247" class="c-id">0x181</text><text x="210" y="247" fill="#4FD97F" class="c-type">PDO1-Tx</text><text x="290"  y="247" class="c-dim">8</text><text x="326" y="247" class="c-ink">61 72 65 2E 64 65 20 3A</text><text x="690" y="247" class="c-ascii">are.de :</text><text x="820" y="247" class="c-dim">0x1A</text>
      <rect x="0" y="250" width="960" height="13" fill="#2A251E"/><text x="12"  y="260" class="c-dim">020</text><text x="44"   y="260" class="c-ink">03:28:18.358</text><text x="150"   y="260" class="c-id">0x181</text><text x="210" y="260" fill="#4FD97F" class="c-type">PDO1-Tx</text><text x="290"  y="260" class="c-dim">1</text><text x="326" y="260" class="c-ink">29</text><text x="690" y="260" class="c-ascii">)</text><text x="820" y="260" class="c-dim">0x05</text>
      <text x="12"  y="273" class="c-dim">021</text><text x="44"   y="273" class="c-ink">03:28:18.393</text><text x="150"   y="273" class="c-id">0x701</text><text x="210" y="273" fill="#FF5C3A" class="c-type">HB</text><text x="290"  y="273" class="c-dim">8</text><text x="326" y="273" class="c-ink">BD FF A1 80 00 31 96 7E</text><text x="690" y="273" class="c-ascii">·····1·~</text><text x="820" y="273" class="c-dim">0x1A</text>
      <rect x="0" y="276" width="960" height="13" fill="#2A251E"/><text x="12"  y="286" class="c-dim">022</text><text x="44"   y="286" class="c-ink">03:28:18.435</text><text x="150"   y="286" class="c-id">0x000</text><text x="210" y="286" fill="#B77FFF" class="c-type">NMT</text><text x="290"  y="286" class="c-dim">4</text><text x="326" y="286" class="c-ink">73 35 50 DE</text><text x="690" y="286" class="c-ascii">s5P·</text><text x="820" y="286" class="c-dim">0x1A</text>
      <text x="12"  y="299" class="c-dim">023</text><text x="44"   y="299" class="c-ink">03:28:18.482</text><text x="150"   y="299" class="c-id">0x601</text><text x="210" y="299" fill="#FFB83D" class="c-type">SDO-Rx</text><text x="290"  y="299" class="c-dim">5</text><text x="326" y="299" class="c-ink">C5 D3 4B 26 86</text><text x="690" y="299" class="c-ascii">··K.·</text><text x="820" y="299" class="c-dim">0x11</text>
      <rect x="0" y="302" width="960" height="13" fill="#2A251E"/><text x="12"  y="312" class="c-dim">024</text><text x="44"   y="312" class="c-ink">03:28:18.545</text><text x="150"   y="312" class="c-id">0x281</text><text x="210" y="312" fill="#4FD97F" class="c-type">PDO2-Tx</text><text x="290"  y="312" class="c-dim">7</text><text x="326" y="312" class="c-ink">B8 28 24 C3 25 34 79</text><text x="690" y="312" class="c-ascii">·($·%4y</text><text x="820" y="312" class="c-dim">0x1A</text>
      </g>
    </g>
  </g>

  <!-- footer -->
  <line x1="0" y1="180" x2="960" y2="180" stroke="#3A352C" stroke-width="1"/>
  <rect class="c-subbg" x="0" y="180" width="960" height="20"/>
  <text class="c-foot-dim" x="12" y="194">CAN 2.0B · 500 kb/s · load 18% · err 0/0 · node 0x1A @ <tspan fill="#4FD97F">OPERATIONAL</tspan> · LIVE</text>
  <circle cx="870" cy="190" r="3" fill="#FF5C3A">
    <animate attributeName="r" values="3;5;3" dur="1s" repeatCount="indefinite"/>
    <animate attributeName="opacity" values="1;0.4;1" dur="1s" repeatCount="indefinite"/>
  </circle>
  <text class="c-foot" x="882" y="194">10ms</text>
  <text class="c-foot-dim" x="920" y="194">HB</text>
</svg>
