<svg xmlns="http://www.w3.org/2000/svg" viewBox="0 0 960 200" width="960" height="200" role="img" aria-label="CANopen live frame monitor">
  <defs>
    <style>
      .c-bg    { fill: #1A1814; }
      .c-subbg { fill: #221E18; }
      .c-border{ fill: none; stroke: #3A352C; stroke-width: 1; }
      .c-head  { font-family: 'IBM Plex Mono', Menlo, Consolas, monospace; font-size: 11px; fill: #A89968; font-weight: 700; }
      .c-ink   { font-family: 'IBM Plex Mono', Menlo, Consolas, monospace; font-size: 11px; fill: #E8DCC4; }
      .c-dim   { font-family: 'IBM Plex Mono', Menlo, Consolas, monospace; font-size: 11px; fill: #A89968; }
      .c-id    { font-family: 'IBM Plex Mono', Menlo, Consolas, monospace; font-size: 11px; fill: #FFB83D; font-weight: 700; }
      .c-type  { font-family: 'IBM Plex Mono', Menlo, Consolas, monospace; font-size: 11px; font-weight: 700; }
      .c-ascii { font-family: 'IBM Plex Mono', Menlo, Consolas, monospace; font-size: 11px; fill: #4FD97F; }
      .c-foot  { font-family: 'IBM Plex Mono', Menlo, Consolas, monospace; font-size: 11px; fill: #E8DCC4; }
      .c-foot-dim { font-family: 'IBM Plex Mono', Menlo, Consolas, monospace; font-size: 11px; fill: #A89968; }
    </style>
    <clipPath id="c-clip">
      <rect x="0" y="24" width="960" height="156"/>
    </clipPath>
  </defs>

  <rect class="c-bg" width="960" height="200"/>
  <rect class="c-border" x="0.5" y="0.5" width="959" height="199"/>

  <!-- header row -->
  <rect class="c-subbg" x="0" y="0" width="960" height="24"/>
  <line x1="0" y1="24" x2="960" y2="24" stroke="#3A352C" stroke-width="1"/>
  <text class="c-head" x="12"   y="16">#</text>
  <text class="c-head" x="44"    y="16">timestamp</text>
  <text class="c-head" x="150"    y="16">id</text>
  <text class="c-head" x="210"  y="16">type</text>
  <text class="c-head" x="290"   y="16">len</text>
  <text class="c-head" x="326"  y="16">data</text>
  <text class="c-head" x="690" y="16">ascii</text>
  <text class="c-head" x="820"  y="16">node</text>

  <!-- scrolling rows -->
  <g clip-path="url(#c-clip)">
    <g transform="translate(0 24)">
      <animateTransform attributeName="transform" type="translate" from="0 24" to="0 -288" dur="22s" repeatCount="indefinite"/>
      <g>
      <text x="12"  y="13" class="c-dim">001</text><text x="44"   y="13" class="c-ink">10:33:12.034</text><text x="150"   y="13" class="c-id">0x281</text><text x="210" y="13" fill="#4FD97F" class="c-type">PDO2-Tx</text><text x="290"  y="13" class="c-dim">2</text><text x="326" y="13" class="c-ink">EC D4</text><text x="690" y="13" class="c-ascii">··</text><text x="820" y="13" class="c-dim">0x1A</text>
      <rect x="0" y="16" width="960" height="13" fill="#2A251E"/><text x="12"  y="26" class="c-dim">002</text><text x="44"   y="26" class="c-ink">10:33:12.084</text><text x="150"   y="26" class="c-id">0x401</text><text x="210" y="26" fill="#4FC3FF" class="c-type">PDO3-Rx</text><text x="290"  y="26" class="c-dim">8</text><text x="326" y="26" class="c-ink">B1 3D 1E ED 5A 42 6F E5</text><text x="690" y="26" class="c-ascii">·=··ZBo·</text><text x="820" y="26" class="c-dim">0x1A</text>
      <text x="12"  y="39" class="c-dim">003</text><text x="44"   y="39" class="c-ink">10:33:12.125</text><text x="150"   y="39" class="c-id">0x581</text><text x="210" y="39" fill="#FFB83D" class="c-type">SDO-Tx</text><text x="290"  y="39" class="c-dim">8</text><text x="326" y="39" class="c-ink">E6 5C AB 8E 58 17 95 1A</text><text x="690" y="39" class="c-ascii">·\··X···</text><text x="820" y="39" class="c-dim">0x1A</text>
      <rect x="0" y="42" width="960" height="13" fill="#2A251E"/><text x="12"  y="52" class="c-dim">004</text><text x="44"   y="52" class="c-ink">10:33:12.207</text><text x="150"   y="52" class="c-id">0x281</text><text x="210" y="52" fill="#4FD97F" class="c-type">PDO2-Tx</text><text x="290"  y="52" class="c-dim">6</text><text x="326" y="52" class="c-ink">1A AD F7 B7 B3 7F</text><text x="690" y="52" class="c-ascii">······</text><text x="820" y="52" class="c-dim">0x11</text>
      <text x="12"  y="65" class="c-dim">005</text><text x="44"   y="65" class="c-ink">10:33:12.292</text><text x="150"   y="65" class="c-id">0x201</text><text x="210" y="65" fill="#4FC3FF" class="c-type">PDO1-Rx</text><text x="290"  y="65" class="c-dim">8</text><text x="326" y="65" class="c-ink">47 10 FD C0 13 C4 18 53</text><text x="690" y="65" class="c-ascii">G······S</text><text x="820" y="65" class="c-dim">0x05</text>
      <rect x="0" y="68" width="960" height="13" fill="#2A251E"/><text x="12"  y="78" class="c-dim">006</text><text x="44"   y="78" class="c-ink">10:33:12.389</text><text x="150"   y="78" class="c-id">0x581</text><text x="210" y="78" fill="#FFB83D" class="c-type">SDO-Tx</text><text x="290"  y="78" class="c-dim">3</text><text x="326" y="78" class="c-ink">84 61 E8</text><text x="690" y="78" class="c-ascii">·a·</text><text x="820" y="78" class="c-dim">0x02</text>
      <text x="12"  y="91" class="c-dim">007</text><text x="44"   y="91" class="c-ink">10:33:12.435</text><text x="150"   y="91" class="c-id">0x701</text><text x="210" y="91" fill="#FF5C3A" class="c-type">HB</text><text x="290"  y="91" class="c-dim">6</text><text x="326" y="91" class="c-ink">26 4D 6D 65 BC F5</text><text x="690" y="91" class="c-ascii">.Mme··</text><text x="820" y="91" class="c-dim">0x11</text>
      <rect x="0" y="94" width="960" height="13" fill="#2A251E"/><text x="12"  y="104" class="c-dim">008</text><text x="44"   y="104" class="c-ink">10:33:12.470</text><text x="150"   y="104" class="c-id">0x000</text><text x="210" y="104" fill="#B77FFF" class="c-type">NMT</text><text x="290"  y="104" class="c-dim">7</text><text x="326" y="104" class="c-ink">E4 00 4B 30 0F 7D 7E</text><text x="690" y="104" class="c-ascii">··K0·}~</text><text x="820" y="104" class="c-dim">0x05</text>
      <text x="12"  y="117" class="c-dim">009</text><text x="44"   y="117" class="c-ink">10:33:12.542</text><text x="150"   y="117" class="c-id">0x401</text><text x="210" y="117" fill="#4FC3FF" class="c-type">PDO3-Rx</text><text x="290"  y="117" class="c-dim">2</text><text x="326" y="117" class="c-ink">85 F0</text><text x="690" y="117" class="c-ascii">··</text><text x="820" y="117" class="c-dim">0x1A</text>
      <rect x="0" y="120" width="960" height="13" fill="#2A251E"/><text x="12"  y="130" class="c-dim">010</text><text x="44"   y="130" class="c-ink">10:33:12.573</text><text x="150"   y="130" class="c-id">0x601</text><text x="210" y="130" fill="#FFB83D" class="c-type">SDO-Rx</text><text x="290"  y="130" class="c-dim">8</text><text x="326" y="130" class="c-ink">A0 65 31 D9 BD 72 64 A4</text><text x="690" y="130" class="c-ascii">·e1··rd·</text><text x="820" y="130" class="c-dim">0x1A</text>
      <text x="12"  y="143" class="c-dim">011</text><text x="44"   y="143" class="c-ink">10:33:12.661</text><text x="150"   y="143" class="c-id">0x000</text><text x="210" y="143" fill="#B77FFF" class="c-type">NMT</text><text x="290"  y="143" class="c-dim">7</text><text x="326" y="143" class="c-ink">BA C4 CC 69 25 15 1D</text><text x="690" y="143" class="c-ascii">···i%··</text><text x="820" y="143" class="c-dim">0x02</text>
      <rect x="0" y="146" width="960" height="13" fill="#2A251E"/><text x="12"  y="156" class="c-dim">012</text><text x="44"   y="156" class="c-ink">10:33:12.714</text><text x="150"   y="156" class="c-id">0x181</text><text x="210" y="156" fill="#4FD97F" class="c-type">PDO1-Tx</text><text x="290"  y="156" class="c-dim">8</text><text x="326" y="156" class="c-ink">68 65 6C 6C 6F 20 66 72</text><text x="690" y="156" class="c-ascii">hello fr</text><text x="820" y="156" class="c-dim">0x11</text>
      <text x="12"  y="169" class="c-dim">013</text><text x="44"   y="169" class="c-ink">10:33:12.793</text><text x="150"   y="169" class="c-id">0x181</text><text x="210" y="169" fill="#4FD97F" class="c-type">PDO1-Tx</text><text x="290"  y="169" class="c-dim">8</text><text x="326" y="169" class="c-ink">6F 6D 20 6C 6F 72 64 77</text><text x="690" y="169" class="c-ascii">om lordw</text><text x="820" y="169" class="c-dim">0x02</text>
      <rect x="0" y="172" width="960" height="13" fill="#2A251E"/><text x="12"  y="182" class="c-dim">014</text><text x="44"   y="182" class="c-ink">10:33:12.877</text><text x="150"   y="182" class="c-id">0x181</text><text x="210" y="182" fill="#4FD97F" class="c-type">PDO1-Tx</text><text x="290"  y="182" class="c-dim">8</text><text x="326" y="182" class="c-ink">61 72 65 2E 64 65 20 3A</text><text x="690" y="182" class="c-ascii">are.de :</text><text x="820" y="182" class="c-dim">0x05</text>
      <text x="12"  y="195" class="c-dim">015</text><text x="44"   y="195" class="c-ink">10:33:12.924</text><text x="150"   y="195" class="c-id">0x181</text><text x="210" y="195" fill="#4FD97F" class="c-type">PDO1-Tx</text><text x="290"  y="195" class="c-dim">1</text><text x="326" y="195" class="c-ink">29</text><text x="690" y="195" class="c-ascii">)</text><text x="820" y="195" class="c-dim">0x1A</text>
      <rect x="0" y="198" width="960" height="13" fill="#2A251E"/><text x="12"  y="208" class="c-dim">016</text><text x="44"   y="208" class="c-ink">10:33:12.968</text><text x="150"   y="208" class="c-id">0x401</text><text x="210" y="208" fill="#4FC3FF" class="c-type">PDO3-Rx</text><text x="290"  y="208" class="c-dim">1</text><text x="326" y="208" class="c-ink">F6</text><text x="690" y="208" class="c-ascii">·</text><text x="820" y="208" class="c-dim">0x1A</text>
      <text x="12"  y="221" class="c-dim">017</text><text x="44"   y="221" class="c-ink">10:33:13.013</text><text x="150"   y="221" class="c-id">0x601</text><text x="210" y="221" fill="#FFB83D" class="c-type">SDO-Rx</text><text x="290"  y="221" class="c-dim">7</text><text x="326" y="221" class="c-ink">5F EB 67 9D 9B BD 57</text><text x="690" y="221" class="c-ascii">_·g···W</text><text x="820" y="221" class="c-dim">0x02</text>
      <rect x="0" y="224" width="960" height="13" fill="#2A251E"/><text x="12"  y="234" class="c-dim">018</text><text x="44"   y="234" class="c-ink">10:33:13.062</text><text x="150"   y="234" class="c-id">0x181</text><text x="210" y="234" fill="#4FD97F" class="c-type">PDO1-Tx</text><text x="290"  y="234" class="c-dim">1</text><text x="326" y="234" class="c-ink">7D</text><text x="690" y="234" class="c-ascii">}</text><text x="820" y="234" class="c-dim">0x1A</text>
      <text x="12"  y="247" class="c-dim">019</text><text x="44"   y="247" class="c-ink">10:33:13.118</text><text x="150"   y="247" class="c-id">0x181</text><text x="210" y="247" fill="#4FD97F" class="c-type">PDO1-Tx</text><text x="290"  y="247" class="c-dim">6</text><text x="326" y="247" class="c-ink">CA F3 A0 1C 9B D8</text><text x="690" y="247" class="c-ascii">······</text><text x="820" y="247" class="c-dim">0x1A</text>
      <rect x="0" y="250" width="960" height="13" fill="#2A251E"/><text x="12"  y="260" class="c-dim">020</text><text x="44"   y="260" class="c-ink">10:33:13.180</text><text x="150"   y="260" class="c-id">0x581</text><text x="210" y="260" fill="#FFB83D" class="c-type">SDO-Tx</text><text x="290"  y="260" class="c-dim">5</text><text x="326" y="260" class="c-ink">4E 1E 6F 21 8A</text><text x="690" y="260" class="c-ascii">N·o!·</text><text x="820" y="260" class="c-dim">0x1A</text>
      <text x="12"  y="273" class="c-dim">021</text><text x="44"   y="273" class="c-ink">10:33:13.254</text><text x="150"   y="273" class="c-id">0x581</text><text x="210" y="273" fill="#FFB83D" class="c-type">SDO-Tx</text><text x="290"  y="273" class="c-dim">5</text><text x="326" y="273" class="c-ink">6D 60 A0 86 A8</text><text x="690" y="273" class="c-ascii">m`···</text><text x="820" y="273" class="c-dim">0x11</text>
      <rect x="0" y="276" width="960" height="13" fill="#2A251E"/><text x="12"  y="286" class="c-dim">022</text><text x="44"   y="286" class="c-ink">10:33:13.322</text><text x="150"   y="286" class="c-id">0x181</text><text x="210" y="286" fill="#4FD97F" class="c-type">PDO1-Tx</text><text x="290"  y="286" class="c-dim">1</text><text x="326" y="286" class="c-ink">1E</text><text x="690" y="286" class="c-ascii">·</text><text x="820" y="286" class="c-dim">0x11</text>
      <text x="12"  y="299" class="c-dim">023</text><text x="44"   y="299" class="c-ink">10:33:13.385</text><text x="150"   y="299" class="c-id">0x181</text><text x="210" y="299" fill="#4FD97F" class="c-type">PDO1-Tx</text><text x="290"  y="299" class="c-dim">3</text><text x="326" y="299" class="c-ink">8A 4C 7B</text><text x="690" y="299" class="c-ascii">·L{</text><text x="820" y="299" class="c-dim">0x1A</text>
      <rect x="0" y="302" width="960" height="13" fill="#2A251E"/><text x="12"  y="312" class="c-dim">024</text><text x="44"   y="312" class="c-ink">10:33:13.406</text><text x="150"   y="312" class="c-id">0x201</text><text x="210" y="312" fill="#4FC3FF" class="c-type">PDO1-Rx</text><text x="290"  y="312" class="c-dim">4</text><text x="326" y="312" class="c-ink">50 C3 1E 52</text><text x="690" y="312" class="c-ascii">P··R</text><text x="820" y="312" class="c-dim">0x02</text>
      </g>
      <g transform="translate(0 312)">
      <text x="12"  y="13" class="c-dim">001</text><text x="44"   y="13" class="c-ink">10:33:12.034</text><text x="150"   y="13" class="c-id">0x281</text><text x="210" y="13" fill="#4FD97F" class="c-type">PDO2-Tx</text><text x="290"  y="13" class="c-dim">2</text><text x="326" y="13" class="c-ink">EC D4</text><text x="690" y="13" class="c-ascii">··</text><text x="820" y="13" class="c-dim">0x1A</text>
      <rect x="0" y="16" width="960" height="13" fill="#2A251E"/><text x="12"  y="26" class="c-dim">002</text><text x="44"   y="26" class="c-ink">10:33:12.084</text><text x="150"   y="26" class="c-id">0x401</text><text x="210" y="26" fill="#4FC3FF" class="c-type">PDO3-Rx</text><text x="290"  y="26" class="c-dim">8</text><text x="326" y="26" class="c-ink">B1 3D 1E ED 5A 42 6F E5</text><text x="690" y="26" class="c-ascii">·=··ZBo·</text><text x="820" y="26" class="c-dim">0x1A</text>
      <text x="12"  y="39" class="c-dim">003</text><text x="44"   y="39" class="c-ink">10:33:12.125</text><text x="150"   y="39" class="c-id">0x581</text><text x="210" y="39" fill="#FFB83D" class="c-type">SDO-Tx</text><text x="290"  y="39" class="c-dim">8</text><text x="326" y="39" class="c-ink">E6 5C AB 8E 58 17 95 1A</text><text x="690" y="39" class="c-ascii">·\··X···</text><text x="820" y="39" class="c-dim">0x1A</text>
      <rect x="0" y="42" width="960" height="13" fill="#2A251E"/><text x="12"  y="52" class="c-dim">004</text><text x="44"   y="52" class="c-ink">10:33:12.207</text><text x="150"   y="52" class="c-id">0x281</text><text x="210" y="52" fill="#4FD97F" class="c-type">PDO2-Tx</text><text x="290"  y="52" class="c-dim">6</text><text x="326" y="52" class="c-ink">1A AD F7 B7 B3 7F</text><text x="690" y="52" class="c-ascii">······</text><text x="820" y="52" class="c-dim">0x11</text>
      <text x="12"  y="65" class="c-dim">005</text><text x="44"   y="65" class="c-ink">10:33:12.292</text><text x="150"   y="65" class="c-id">0x201</text><text x="210" y="65" fill="#4FC3FF" class="c-type">PDO1-Rx</text><text x="290"  y="65" class="c-dim">8</text><text x="326" y="65" class="c-ink">47 10 FD C0 13 C4 18 53</text><text x="690" y="65" class="c-ascii">G······S</text><text x="820" y="65" class="c-dim">0x05</text>
      <rect x="0" y="68" width="960" height="13" fill="#2A251E"/><text x="12"  y="78" class="c-dim">006</text><text x="44"   y="78" class="c-ink">10:33:12.389</text><text x="150"   y="78" class="c-id">0x581</text><text x="210" y="78" fill="#FFB83D" class="c-type">SDO-Tx</text><text x="290"  y="78" class="c-dim">3</text><text x="326" y="78" class="c-ink">84 61 E8</text><text x="690" y="78" class="c-ascii">·a·</text><text x="820" y="78" class="c-dim">0x02</text>
      <text x="12"  y="91" class="c-dim">007</text><text x="44"   y="91" class="c-ink">10:33:12.435</text><text x="150"   y="91" class="c-id">0x701</text><text x="210" y="91" fill="#FF5C3A" class="c-type">HB</text><text x="290"  y="91" class="c-dim">6</text><text x="326" y="91" class="c-ink">26 4D 6D 65 BC F5</text><text x="690" y="91" class="c-ascii">.Mme··</text><text x="820" y="91" class="c-dim">0x11</text>
      <rect x="0" y="94" width="960" height="13" fill="#2A251E"/><text x="12"  y="104" class="c-dim">008</text><text x="44"   y="104" class="c-ink">10:33:12.470</text><text x="150"   y="104" class="c-id">0x000</text><text x="210" y="104" fill="#B77FFF" class="c-type">NMT</text><text x="290"  y="104" class="c-dim">7</text><text x="326" y="104" class="c-ink">E4 00 4B 30 0F 7D 7E</text><text x="690" y="104" class="c-ascii">··K0·}~</text><text x="820" y="104" class="c-dim">0x05</text>
      <text x="12"  y="117" class="c-dim">009</text><text x="44"   y="117" class="c-ink">10:33:12.542</text><text x="150"   y="117" class="c-id">0x401</text><text x="210" y="117" fill="#4FC3FF" class="c-type">PDO3-Rx</text><text x="290"  y="117" class="c-dim">2</text><text x="326" y="117" class="c-ink">85 F0</text><text x="690" y="117" class="c-ascii">··</text><text x="820" y="117" class="c-dim">0x1A</text>
      <rect x="0" y="120" width="960" height="13" fill="#2A251E"/><text x="12"  y="130" class="c-dim">010</text><text x="44"   y="130" class="c-ink">10:33:12.573</text><text x="150"   y="130" class="c-id">0x601</text><text x="210" y="130" fill="#FFB83D" class="c-type">SDO-Rx</text><text x="290"  y="130" class="c-dim">8</text><text x="326" y="130" class="c-ink">A0 65 31 D9 BD 72 64 A4</text><text x="690" y="130" class="c-ascii">·e1··rd·</text><text x="820" y="130" class="c-dim">0x1A</text>
      <text x="12"  y="143" class="c-dim">011</text><text x="44"   y="143" class="c-ink">10:33:12.661</text><text x="150"   y="143" class="c-id">0x000</text><text x="210" y="143" fill="#B77FFF" class="c-type">NMT</text><text x="290"  y="143" class="c-dim">7</text><text x="326" y="143" class="c-ink">BA C4 CC 69 25 15 1D</text><text x="690" y="143" class="c-ascii">···i%··</text><text x="820" y="143" class="c-dim">0x02</text>
      <rect x="0" y="146" width="960" height="13" fill="#2A251E"/><text x="12"  y="156" class="c-dim">012</text><text x="44"   y="156" class="c-ink">10:33:12.714</text><text x="150"   y="156" class="c-id">0x181</text><text x="210" y="156" fill="#4FD97F" class="c-type">PDO1-Tx</text><text x="290"  y="156" class="c-dim">8</text><text x="326" y="156" class="c-ink">68 65 6C 6C 6F 20 66 72</text><text x="690" y="156" class="c-ascii">hello fr</text><text x="820" y="156" class="c-dim">0x11</text>
      <text x="12"  y="169" class="c-dim">013</text><text x="44"   y="169" class="c-ink">10:33:12.793</text><text x="150"   y="169" class="c-id">0x181</text><text x="210" y="169" fill="#4FD97F" class="c-type">PDO1-Tx</text><text x="290"  y="169" class="c-dim">8</text><text x="326" y="169" class="c-ink">6F 6D 20 6C 6F 72 64 77</text><text x="690" y="169" class="c-ascii">om lordw</text><text x="820" y="169" class="c-dim">0x02</text>
      <rect x="0" y="172" width="960" height="13" fill="#2A251E"/><text x="12"  y="182" class="c-dim">014</text><text x="44"   y="182" class="c-ink">10:33:12.877</text><text x="150"   y="182" class="c-id">0x181</text><text x="210" y="182" fill="#4FD97F" class="c-type">PDO1-Tx</text><text x="290"  y="182" class="c-dim">8</text><text x="326" y="182" class="c-ink">61 72 65 2E 64 65 20 3A</text><text x="690" y="182" class="c-ascii">are.de :</text><text x="820" y="182" class="c-dim">0x05</text>
      <text x="12"  y="195" class="c-dim">015</text><text x="44"   y="195" class="c-ink">10:33:12.924</text><text x="150"   y="195" class="c-id">0x181</text><text x="210" y="195" fill="#4FD97F" class="c-type">PDO1-Tx</text><text x="290"  y="195" class="c-dim">1</text><text x="326" y="195" class="c-ink">29</text><text x="690" y="195" class="c-ascii">)</text><text x="820" y="195" class="c-dim">0x1A</text>
      <rect x="0" y="198" width="960" height="13" fill="#2A251E"/><text x="12"  y="208" class="c-dim">016</text><text x="44"   y="208" class="c-ink">10:33:12.968</text><text x="150"   y="208" class="c-id">0x401</text><text x="210" y="208" fill="#4FC3FF" class="c-type">PDO3-Rx</text><text x="290"  y="208" class="c-dim">1</text><text x="326" y="208" class="c-ink">F6</text><text x="690" y="208" class="c-ascii">·</text><text x="820" y="208" class="c-dim">0x1A</text>
      <text x="12"  y="221" class="c-dim">017</text><text x="44"   y="221" class="c-ink">10:33:13.013</text><text x="150"   y="221" class="c-id">0x601</text><text x="210" y="221" fill="#FFB83D" class="c-type">SDO-Rx</text><text x="290"  y="221" class="c-dim">7</text><text x="326" y="221" class="c-ink">5F EB 67 9D 9B BD 57</text><text x="690" y="221" class="c-ascii">_·g···W</text><text x="820" y="221" class="c-dim">0x02</text>
      <rect x="0" y="224" width="960" height="13" fill="#2A251E"/><text x="12"  y="234" class="c-dim">018</text><text x="44"   y="234" class="c-ink">10:33:13.062</text><text x="150"   y="234" class="c-id">0x181</text><text x="210" y="234" fill="#4FD97F" class="c-type">PDO1-Tx</text><text x="290"  y="234" class="c-dim">1</text><text x="326" y="234" class="c-ink">7D</text><text x="690" y="234" class="c-ascii">}</text><text x="820" y="234" class="c-dim">0x1A</text>
      <text x="12"  y="247" class="c-dim">019</text><text x="44"   y="247" class="c-ink">10:33:13.118</text><text x="150"   y="247" class="c-id">0x181</text><text x="210" y="247" fill="#4FD97F" class="c-type">PDO1-Tx</text><text x="290"  y="247" class="c-dim">6</text><text x="326" y="247" class="c-ink">CA F3 A0 1C 9B D8</text><text x="690" y="247" class="c-ascii">······</text><text x="820" y="247" class="c-dim">0x1A</text>
      <rect x="0" y="250" width="960" height="13" fill="#2A251E"/><text x="12"  y="260" class="c-dim">020</text><text x="44"   y="260" class="c-ink">10:33:13.180</text><text x="150"   y="260" class="c-id">0x581</text><text x="210" y="260" fill="#FFB83D" class="c-type">SDO-Tx</text><text x="290"  y="260" class="c-dim">5</text><text x="326" y="260" class="c-ink">4E 1E 6F 21 8A</text><text x="690" y="260" class="c-ascii">N·o!·</text><text x="820" y="260" class="c-dim">0x1A</text>
      <text x="12"  y="273" class="c-dim">021</text><text x="44"   y="273" class="c-ink">10:33:13.254</text><text x="150"   y="273" class="c-id">0x581</text><text x="210" y="273" fill="#FFB83D" class="c-type">SDO-Tx</text><text x="290"  y="273" class="c-dim">5</text><text x="326" y="273" class="c-ink">6D 60 A0 86 A8</text><text x="690" y="273" class="c-ascii">m`···</text><text x="820" y="273" class="c-dim">0x11</text>
      <rect x="0" y="276" width="960" height="13" fill="#2A251E"/><text x="12"  y="286" class="c-dim">022</text><text x="44"   y="286" class="c-ink">10:33:13.322</text><text x="150"   y="286" class="c-id">0x181</text><text x="210" y="286" fill="#4FD97F" class="c-type">PDO1-Tx</text><text x="290"  y="286" class="c-dim">1</text><text x="326" y="286" class="c-ink">1E</text><text x="690" y="286" class="c-ascii">·</text><text x="820" y="286" class="c-dim">0x11</text>
      <text x="12"  y="299" class="c-dim">023</text><text x="44"   y="299" class="c-ink">10:33:13.385</text><text x="150"   y="299" class="c-id">0x181</text><text x="210" y="299" fill="#4FD97F" class="c-type">PDO1-Tx</text><text x="290"  y="299" class="c-dim">3</text><text x="326" y="299" class="c-ink">8A 4C 7B</text><text x="690" y="299" class="c-ascii">·L{</text><text x="820" y="299" class="c-dim">0x1A</text>
      <rect x="0" y="302" width="960" height="13" fill="#2A251E"/><text x="12"  y="312" class="c-dim">024</text><text x="44"   y="312" class="c-ink">10:33:13.406</text><text x="150"   y="312" class="c-id">0x201</text><text x="210" y="312" fill="#4FC3FF" class="c-type">PDO1-Rx</text><text x="290"  y="312" class="c-dim">4</text><text x="326" y="312" class="c-ink">50 C3 1E 52</text><text x="690" y="312" class="c-ascii">P··R</text><text x="820" y="312" class="c-dim">0x02</text>
      </g>
    </g>
  </g>

  <!-- footer -->
  <line x1="0" y1="180" x2="960" y2="180" stroke="#3A352C" stroke-width="1"/>
  <rect class="c-subbg" x="0" y="180" width="960" height="20"/>
  <text class="c-foot-dim" x="12" y="194">CAN 2.0B · 500 kb/s · load 18% · err 0/0 · node 0x1A @ <tspan fill="#4FD97F">OPERATIONAL</tspan> · LIVE</text>
  <circle cx="870" cy="190" r="3" fill="#FF5C3A">
    <animate attributeName="r" values="3;5;3" dur="1s" repeatCount="indefinite"/>
    <animate attributeName="opacity" values="1;0.4;1" dur="1s" repeatCount="indefinite"/>
  </circle>
  <text class="c-foot" x="882" y="194">10ms</text>
  <text class="c-foot-dim" x="920" y="194">HB</text>
</svg>
