<svg xmlns="http://www.w3.org/2000/svg" viewBox="0 0 960 320" width="960" height="320" role="img" aria-label="lordware language byte distribution">
  <defs>
    <style>
      .l-bg     { fill: #1A1814; }
      .l-subbg  { fill: #221E18; }
      .l-border { fill: none; stroke: #3A352C; stroke-width: 1; }
      .l-title  { font-family: 'IBM Plex Mono', Menlo, Consolas, monospace; font-size: 14px; fill: #FFB83D; font-weight: 700; letter-spacing: 1px; }
      .l-sub    { font-family: 'IBM Plex Mono', Menlo, Consolas, monospace; font-size: 11px; fill: #A89968; }
      .l-label  { font-family: 'IBM Plex Mono', Menlo, Consolas, monospace; font-size: 12px; fill: #E8DCC4; font-weight: 700; }
      .l-bytes  { font-family: 'IBM Plex Mono', Menlo, Consolas, monospace; font-size: 11px; fill: #E8DCC4; }
      .l-pct    { font-family: 'IBM Plex Mono', Menlo, Consolas, monospace; font-size: 11px; fill: #FFB83D; font-weight: 700; }
      .l-foot   { font-family: 'IBM Plex Mono', Menlo, Consolas, monospace; font-size: 11px; fill: #A89968; }
    </style>
  </defs>
  <metadata id="lang-cache">{"Python":102461,"Shell":618,"C#":3979,"JavaScript":1695}</metadata>

  <rect class="l-bg" width="960" height="320"/>
  <rect class="l-border" x="0.5" y="0.5" width="959" height="319"/>

  <rect class="l-subbg" x="0" y="0" width="960" height="32"/>
  <line x1="0" y1="32" x2="960" y2="32" stroke="#3A352C" stroke-width="1"/>
  <text class="l-title" x="12" y="20">LANGUAGE LOAD METER</text>
  <text class="l-sub"   x="220" y="20">/sys/class/lang/* · top 8 of 4 known</text>
  <text class="l-sub"   x="740" y="20">total 108.8 KB · sampled 4 keys</text>

  <text x="12" y="46" class="l-sub">name           usage         (filled = relative to leader)               bytes        %</text>

  <text x="12" y="66" class="l-label">Python        </text><rect x="136" y="50" width="658" height="17" fill="#221E18" stroke="#3A352C"/><rect x="136" y="50" width="0" height="17" fill="#FFD145"><animate attributeName="width" from="0" to="658" begin="0.00s" dur="0.85s" fill="freeze" calcMode="spline" keySplines="0.25 0.1 0.25 1"/></rect><line x1="201" y1="50" x2="201" y2="67" stroke="#3A352C" stroke-width="1"/><line x1="267" y1="50" x2="267" y2="67" stroke="#3A352C" stroke-width="1"/><line x1="333" y1="50" x2="333" y2="67" stroke="#3A352C" stroke-width="1"/><line x1="399" y1="50" x2="399" y2="67" stroke="#3A352C" stroke-width="1"/><line x1="465" y1="50" x2="465" y2="67" stroke="#3A352C" stroke-width="1"/><line x1="530" y1="50" x2="530" y2="67" stroke="#3A352C" stroke-width="1"/><line x1="596" y1="50" x2="596" y2="67" stroke="#3A352C" stroke-width="1"/><line x1="662" y1="50" x2="662" y2="67" stroke="#3A352C" stroke-width="1"/><line x1="728" y1="50" x2="728" y2="67" stroke="#3A352C" stroke-width="1"/><text x="806" y="66" class="l-bytes">102.5 KB</text><text x="904" y="66" class="l-pct"> 94.2%</text><text x="12" y="95" class="l-label">C#            </text><rect x="136" y="79" width="658" height="17" fill="#221E18" stroke="#3A352C"/><rect x="136" y="79" width="0" height="17" fill="#9B7CB6"><animate attributeName="width" from="0" to="25" begin="0.15s" dur="0.85s" fill="freeze" calcMode="spline" keySplines="0.25 0.1 0.25 1"/></rect><line x1="201" y1="79" x2="201" y2="96" stroke="#3A352C" stroke-width="1"/><line x1="267" y1="79" x2="267" y2="96" stroke="#3A352C" stroke-width="1"/><line x1="333" y1="79" x2="333" y2="96" stroke="#3A352C" stroke-width="1"/><line x1="399" y1="79" x2="399" y2="96" stroke="#3A352C" stroke-width="1"/><line x1="465" y1="79" x2="465" y2="96" stroke="#3A352C" stroke-width="1"/><line x1="530" y1="79" x2="530" y2="96" stroke="#3A352C" stroke-width="1"/><line x1="596" y1="79" x2="596" y2="96" stroke="#3A352C" stroke-width="1"/><line x1="662" y1="79" x2="662" y2="96" stroke="#3A352C" stroke-width="1"/><line x1="728" y1="79" x2="728" y2="96" stroke="#3A352C" stroke-width="1"/><text x="806" y="95" class="l-bytes">  4.0 KB</text><text x="904" y="95" class="l-pct">  3.7%</text><text x="12" y="124" class="l-label">JavaScript    </text><rect x="136" y="108" width="658" height="17" fill="#221E18" stroke="#3A352C"/><rect x="136" y="108" width="0" height="17" fill="#F1E05A"><animate attributeName="width" from="0" to="10" begin="0.30s" dur="0.85s" fill="freeze" calcMode="spline" keySplines="0.25 0.1 0.25 1"/></rect><line x1="201" y1="108" x2="201" y2="125" stroke="#3A352C" stroke-width="1"/><line x1="267" y1="108" x2="267" y2="125" stroke="#3A352C" stroke-width="1"/><line x1="333" y1="108" x2="333" y2="125" stroke="#3A352C" stroke-width="1"/><line x1="399" y1="108" x2="399" y2="125" stroke="#3A352C" stroke-width="1"/><line x1="465" y1="108" x2="465" y2="125" stroke="#3A352C" stroke-width="1"/><line x1="530" y1="108" x2="530" y2="125" stroke="#3A352C" stroke-width="1"/><line x1="596" y1="108" x2="596" y2="125" stroke="#3A352C" stroke-width="1"/><line x1="662" y1="108" x2="662" y2="125" stroke="#3A352C" stroke-width="1"/><line x1="728" y1="108" x2="728" y2="125" stroke="#3A352C" stroke-width="1"/><text x="806" y="124" class="l-bytes">  1.7 KB</text><text x="904" y="124" class="l-pct">  1.6%</text><text x="12" y="153" class="l-label">Shell         </text><rect x="136" y="137" width="658" height="17" fill="#221E18" stroke="#3A352C"/><rect x="136" y="137" width="0" height="17" fill="#89E051"><animate attributeName="width" from="0" to="3" begin="0.45s" dur="0.85s" fill="freeze" calcMode="spline" keySplines="0.25 0.1 0.25 1"/></rect><line x1="201" y1="137" x2="201" y2="154" stroke="#3A352C" stroke-width="1"/><line x1="267" y1="137" x2="267" y2="154" stroke="#3A352C" stroke-width="1"/><line x1="333" y1="137" x2="333" y2="154" stroke="#3A352C" stroke-width="1"/><line x1="399" y1="137" x2="399" y2="154" stroke="#3A352C" stroke-width="1"/><line x1="465" y1="137" x2="465" y2="154" stroke="#3A352C" stroke-width="1"/><line x1="530" y1="137" x2="530" y2="154" stroke="#3A352C" stroke-width="1"/><line x1="596" y1="137" x2="596" y2="154" stroke="#3A352C" stroke-width="1"/><line x1="662" y1="137" x2="662" y2="154" stroke="#3A352C" stroke-width="1"/><line x1="728" y1="137" x2="728" y2="154" stroke="#3A352C" stroke-width="1"/><text x="806" y="153" class="l-bytes">  618  B</text><text x="904" y="153" class="l-pct">  0.6%</text>

  <line x1="0" y1="298" x2="960" y2="298" stroke="#3A352C" stroke-width="1"/>
  <rect class="l-subbg" x="0" y="298" width="960" height="22"/>
  <circle cx="14" cy="310" r="3" fill="#4FD97F">
    <animate attributeName="opacity" values="1;0.3;1" dur="1.6s" repeatCount="indefinite"/>
  </circle>
  <text class="l-foot" x="24" y="313">sampled 2026-04-26 06:35:44Z · refresh */6h via gh-actions</text>
  <text class="l-foot" x="850" y="313">[q]uit  [r]efresh</text>
</svg>
