<svg xmlns="http://www.w3.org/2000/svg" width="480" height="424" viewBox="0 0 480 424" role="img" aria-labelledby="title desc">
<title id="title">08 / SOURCE BYTE DISTRIBUTION</title><desc id="desc">GitHub language byte counts across owned public non-fork, non-archived repositories. Bars and percentages show shares of the complete byte total, not CPU load.</desc>
<defs>
<linearGradient id="mat-face" x1="0" y1="0" x2=".12" y2="1"><stop stop-color="#3c4448"/><stop offset=".025" stop-color="#272f33"/><stop offset=".3" stop-color="#242c30"/><stop offset=".82" stop-color="#1b2226"/><stop offset="1" stop-color="#252d31"/></linearGradient>
<linearGradient id="mat-edge" x1="0" y1="0" x2=".35" y2="1"><stop stop-color="#9a9d97"/><stop offset=".035" stop-color="#586368"/><stop offset=".45" stop-color="#222c31"/><stop offset="1" stop-color="#080d10"/></linearGradient>
<linearGradient id="mat-header" x1="0" y1="0" x2="0" y2="1"><stop stop-color="#40494d"/><stop offset=".07" stop-color="#343d41"/><stop offset=".65" stop-color="#282f33"/><stop offset="1" stop-color="#20272b"/></linearGradient>
<radialGradient id="mat-light" cx=".15" cy="0" r="1.1"><stop stop-color="#9ca6a3" stop-opacity=".07"/><stop offset=".6" stop-color="#9ca6a3" stop-opacity="0"/><stop offset="1" stop-color="#000609" stop-opacity=".14"/></radialGradient>
<linearGradient id="mat-screw" x1="0" y1="0" x2=".9" y2="1"><stop stop-color="#c3c8c3"/><stop offset=".2" stop-color="#737f83"/><stop offset=".45" stop-color="#acb3af"/><stop offset=".7" stop-color="#48575e"/><stop offset="1" stop-color="#26363e"/></linearGradient>
<linearGradient id="mat-bezel" x1="0" y1="0" x2=".05" y2="1"><stop stop-color="#05090b"/><stop offset=".14" stop-color="#111b20"/><stop offset=".86" stop-color="#19252a"/><stop offset="1" stop-color="#647074"/></linearGradient>
<linearGradient id="mat-glass" x1="0" y1="0" x2=".12" y2="1"><stop stop-color="#111c1d"/><stop offset=".16" stop-color="#091314"/><stop offset=".7" stop-color="#0a1313"/><stop offset="1" stop-color="#121a17"/></linearGradient>
<linearGradient id="mat-reflection" x1="0" y1="0" x2=".8" y2="1"><stop stop-color="#c4d3cd" stop-opacity=".085"/><stop offset=".3" stop-color="#c4d3cd" stop-opacity=".013"/><stop offset="1" stop-color="#c4d3cd" stop-opacity="0"/></linearGradient>
<linearGradient id="mat-phosphor" x1="0" y1="0" x2="0" y2="1"><stop stop-color="#ffe1a0"/><stop offset=".35" stop-color="#e9b666"/><stop offset="1" stop-color="#c48b3c"/></linearGradient>
<linearGradient id="mat-amber-meter" x1="0" y1="0" x2="0" y2="1"><stop stop-color="#f4cf8a"/><stop offset=".18" stop-color="#ecbc6f"/><stop offset=".62" stop-color="#d59d47"/><stop offset="1" stop-color="#98612d"/></linearGradient>
<linearGradient id="mat-counter-drum" x1="0" y1="0" x2="0" y2="1"><stop stop-color="#050a0c"/><stop offset=".22" stop-color="#263031"/><stop offset=".48" stop-color="#1c2627"/><stop offset=".51" stop-color="#111d20"/><stop offset=".77" stop-color="#1b282a"/><stop offset="1" stop-color="#060d10"/></linearGradient>
<radialGradient id="mat-led"><stop stop-color="#fff2bb"/><stop offset=".22" stop-color="#f3ca76"/><stop offset=".63" stop-color="#d89c3a"/><stop offset="1" stop-color="#6e421e"/></radialGradient>
<pattern id="mat-brush" width="73" height="6" patternUnits="userSpaceOnUse"><path d="M0 .5H73M9 2.5H42M49 4.5H71" fill="none" stroke="#dae0de" stroke-width=".3" opacity=".075"/><path d="M4 1.5H46M32 5.5H69" stroke="#030608" stroke-width=".4" opacity=".14"/></pattern>
<pattern id="mat-pixels" width="3" height="3" patternUnits="userSpaceOnUse"><path d="M0 .5H3" stroke="#050809" stroke-width=".45" opacity=".2"/><circle cx="1.5" cy="1.5" r=".22" fill="#a8b7a8" opacity=".085"/></pattern>
<pattern id="mat-grain" width="59" height="43" patternUnits="userSpaceOnUse"><circle cx="7" cy="11" r="0.16" fill="#040708" opacity="0.2"/><circle cx="24" cy="34" r="0.24" fill="#e2e4dd" opacity="0.09"/><circle cx="41" cy="14" r="0.32" fill="#e2e4dd" opacity="0.09"/><circle cx="58" cy="37" r="0.4" fill="#040708" opacity="0.2"/><circle cx="16" cy="17" r="0.16" fill="#e2e4dd" opacity="0.09"/><circle cx="33" cy="40" r="0.24" fill="#e2e4dd" opacity="0.09"/><circle cx="50" cy="20" r="0.32" fill="#040708" opacity="0.2"/><circle cx="8" cy="0" r="0.4" fill="#e2e4dd" opacity="0.09"/><circle cx="25" cy="23" r="0.16" fill="#e2e4dd" opacity="0.09"/><circle cx="42" cy="3" r="0.24" fill="#040708" opacity="0.2"/><circle cx="0" cy="26" r="0.32" fill="#e2e4dd" opacity="0.09"/><circle cx="17" cy="6" r="0.4" fill="#e2e4dd" opacity="0.09"/><circle cx="34" cy="29" r="0.16" fill="#040708" opacity="0.2"/><circle cx="51" cy="9" r="0.24" fill="#e2e4dd" opacity="0.09"/><circle cx="9" cy="32" r="0.32" fill="#e2e4dd" opacity="0.09"/><circle cx="26" cy="12" r="0.4" fill="#040708" opacity="0.2"/><circle cx="43" cy="35" r="0.16" fill="#e2e4dd" opacity="0.09"/><circle cx="1" cy="15" r="0.24" fill="#e2e4dd" opacity="0.09"/><circle cx="18" cy="38" r="0.32" fill="#040708" opacity="0.2"/><circle cx="35" cy="18" r="0.4" fill="#e2e4dd" opacity="0.09"/><circle cx="52" cy="41" r="0.16" fill="#e2e4dd" opacity="0.09"/><circle cx="10" cy="21" r="0.24" fill="#040708" opacity="0.2"/><circle cx="27" cy="1" r="0.32" fill="#e2e4dd" opacity="0.09"/><circle cx="44" cy="24" r="0.4" fill="#e2e4dd" opacity="0.09"/><circle cx="2" cy="4" r="0.16" fill="#040708" opacity="0.2"/><circle cx="19" cy="27" r="0.24" fill="#e2e4dd" opacity="0.09"/><circle cx="36" cy="7" r="0.32" fill="#e2e4dd" opacity="0.09"/><circle cx="53" cy="30" r="0.4" fill="#040708" opacity="0.2"/><circle cx="11" cy="10" r="0.16" fill="#e2e4dd" opacity="0.09"/><circle cx="28" cy="33" r="0.24" fill="#e2e4dd" opacity="0.09"/><circle cx="45" cy="13" r="0.32" fill="#040708" opacity="0.2"/><circle cx="3" cy="36" r="0.4" fill="#e2e4dd" opacity="0.09"/><circle cx="20" cy="16" r="0.16" fill="#e2e4dd" opacity="0.09"/><circle cx="37" cy="39" r="0.24" fill="#040708" opacity="0.2"/><circle cx="54" cy="19" r="0.32" fill="#e2e4dd" opacity="0.09"/><circle cx="12" cy="42" r="0.4" fill="#e2e4dd" opacity="0.09"/><circle cx="29" cy="22" r="0.16" fill="#040708" opacity="0.2"/><circle cx="46" cy="2" r="0.24" fill="#e2e4dd" opacity="0.09"/><circle cx="4" cy="25" r="0.32" fill="#e2e4dd" opacity="0.09"/><circle cx="21" cy="5" r="0.4" fill="#040708" opacity="0.2"/><circle cx="38" cy="28" r="0.16" fill="#e2e4dd" opacity="0.09"/><circle cx="55" cy="8" r="0.24" fill="#e2e4dd" opacity="0.09"/><circle cx="13" cy="31" r="0.32" fill="#040708" opacity="0.2"/><circle cx="30" cy="11" r="0.4" fill="#e2e4dd" opacity="0.09"/><circle cx="47" cy="34" r="0.16" fill="#e2e4dd" opacity="0.09"/><circle cx="5" cy="14" r="0.24" fill="#040708" opacity="0.2"/><circle cx="22" cy="37" r="0.32" fill="#e2e4dd" opacity="0.09"/><circle cx="39" cy="17" r="0.4" fill="#e2e4dd" opacity="0.09"/></pattern>
<filter id="mat-small-bloom" x="-35%" y="-45%" width="170%" height="190%" color-interpolation-filters="sRGB"><feGaussianBlur stdDeviation=".75"/></filter>
</defs>
<defs><linearGradient id="led-active" x1="0" y1="0" x2="0" y2="1"><stop stop-color="#ffe0a1"/><stop offset=".42" stop-color="#eab760"/><stop offset="1" stop-color="#a9702d"/></linearGradient>
<style>text{font-family:Consolas,'Liberation Mono',monospace}@media(prefers-reduced-motion:reduce){.event-scroll{animation:none!important}}</style></defs>
<metadata id="lang-cache">{"data":{"C#":3979,"CSS":5599,"HTML":2369,"JavaScript":6037,"Python":170705,"Shell":618},"kind":"lang","sampled_at":"2026-09-06T15:00:41.889564+00:00","status":"SNAPSHOT","version":2}</metadata>
<rect x="1" y="3" width="478" height="420" rx="6" fill="#05090c"/><rect x=".5" y=".5" width="479" height="422" rx="6" fill="url(#mat-face)" stroke="#070d11"/><rect x="1.5" y="1.5" width="477" height="420" rx="5" fill="none" stroke="url(#mat-edge)"/><rect x="3" y="3" width="474" height="416" rx="4" fill="url(#mat-light)"/><rect x="3" y="3" width="474" height="416" rx="4" fill="url(#mat-brush)"/><rect x="3" y="3" width="474" height="416" rx="4" fill="url(#mat-grain)"/><rect x="4" y="4" width="472" height="30" rx="3" fill="url(#mat-header)"/><path d="M6 35.5H474" stroke="#0d1418"/><path d="M6 36.5H474" stroke="#60696a" stroke-opacity=".32"/><path d="M8 420.5H472" stroke="#68736f" stroke-opacity=".23"/><g transform="translate(11 20)"><circle cy=".65" r="4.3" fill="#060a0d" opacity=".9"/><circle r="3.45" fill="#111a1f" stroke="#4d585d" stroke-width=".45"/><circle r="3" fill="url(#mat-screw)"/><circle r="2.2" fill="none" stroke="#d3d5c9" stroke-opacity=".23" stroke-width=".35"/><polygon points="0.000,-1.380 0.465,-0.805 1.195,-0.690 0.930,0.000 1.195,0.690 0.465,0.805 0.000,1.380 -0.465,0.805 -1.195,0.690 -0.930,0.000 -1.195,-0.690 -0.465,-0.805" fill="#0d171d" stroke="#1b2b33" stroke-width=".5"/><path d="M-1.9500000000000002 -1.7399999999999998Q0 -3.12 1.7999999999999998 -2.04" fill="none" stroke="#f2f0dd" stroke-opacity=".5" stroke-width=".45"/></g><g transform="translate(469 20)"><circle cy=".65" r="4.3" fill="#060a0d" opacity=".9"/><circle r="3.45" fill="#111a1f" stroke="#4d585d" stroke-width=".45"/><circle r="3" fill="url(#mat-screw)"/><circle r="2.2" fill="none" stroke="#d3d5c9" stroke-opacity=".23" stroke-width=".35"/><polygon points="0.000,-1.380 0.465,-0.805 1.195,-0.690 0.930,0.000 1.195,0.690 0.465,0.805 0.000,1.380 -0.465,0.805 -1.195,0.690 -0.930,0.000 -1.195,-0.690 -0.465,-0.805" fill="#0d171d" stroke="#1b2b33" stroke-width=".5"/><path d="M-1.9500000000000002 -1.7399999999999998Q0 -3.12 1.7999999999999998 -2.04" fill="none" stroke="#f2f0dd" stroke-opacity=".5" stroke-width=".45"/></g>
<text x="32" y="25" font-size="13" fill="#dfddd4" text-anchor="start" font-weight="700">08 / SOURCE BYTE DISTRIBUTION</text>
<text x="448" y="25" font-size="13" fill="#e6ad59" text-anchor="end" font-weight="400">SNAPSHOT</text>
<path d="M16 394H464" stroke="#343a3d"/>
<text x="24" y="413" font-size="13" fill="#8d979a" text-anchor="start" font-weight="400">2026-09-06 15:00 UTC</text>
<text x="24" y="62" font-size="13" fill="#dfddd4" text-anchor="start" font-weight="400">189.3 kB / 6 LANGUAGES</text>
<text x="456" y="62" font-size="13" fill="#8d979a" text-anchor="end" font-weight="400">BYTES</text>
<rect x="15" y="73" width="450" height="314" rx="5" fill="#080f13" stroke="#34454d" stroke-width=".6"/><rect x="16" y="74" width="448" height="312" rx="4" fill="url(#mat-bezel)"/><rect x="18" y="76" width="444" height="308" rx="3" fill="url(#mat-glass)" stroke="#080f10"/><rect x="18.5" y="76.5" width="443" height="307" rx="3" fill="url(#mat-pixels)"/><path d="M21 77H459" stroke="#03090b" stroke-width="2"/><path d="M19 79V381" stroke="#03090b" stroke-width="1.4"/><path d="M21 385.5H459" stroke="#81908b" stroke-opacity=".32" stroke-width=".7"/><rect x="20" y="78" width="440" height="304" rx="2" fill="url(#mat-reflection)"/>
<text x="28" y="97" font-size="13" fill="#dfddd4" text-anchor="start" font-weight="400">Python</text>
<text x="452" y="97" font-size="13" fill="#8d979a" text-anchor="end" font-weight="400">170.7 kB</text>
<text x="452" y="116" font-size="13" fill="#e6ad59" text-anchor="end" font-weight="400">90.2%</text>
<rect x="26" y="103" width="314" height="18" rx="2" fill="#503e29" stroke="#746047"/><rect x="27" y="104" width="312" height="16" rx="1" fill="#070b0c" stroke="#101414"/><rect x="28.0" y="106" width="4.2" height="10" rx="0" fill="#242a24"/><rect x="28.0" y="106" width="4.2" height="10" rx="0" fill="url(#led-active)"/><path d="M28.0 120L28.0 123" stroke="#68716b"/><rect x="34.2" y="106" width="4.2" height="10" rx="0" fill="#242a24"/><rect x="34.2" y="106" width="4.2" height="10" rx="0" fill="url(#led-active)"/><rect x="40.4" y="106" width="4.2" height="10" rx="0" fill="#242a24"/><rect x="40.4" y="106" width="4.2" height="10" rx="0" fill="url(#led-active)"/><rect x="46.6" y="106" width="4.2" height="10" rx="0" fill="#242a24"/><rect x="46.6" y="106" width="4.2" height="10" rx="0" fill="url(#led-active)"/><rect x="52.8" y="106" width="4.2" height="10" rx="0" fill="#242a24"/><rect x="52.8" y="106" width="4.2" height="10" rx="0" fill="url(#led-active)"/><rect x="59.0" y="106" width="4.2" height="10" rx="0" fill="#242a24"/><rect x="59.0" y="106" width="4.2" height="10" rx="0" fill="url(#led-active)"/><path d="M59.0 120L59.0 123" stroke="#68716b"/><rect x="65.2" y="106" width="4.2" height="10" rx="0" fill="#242a24"/><rect x="65.2" y="106" width="4.2" height="10" rx="0" fill="url(#led-active)"/><rect x="71.4" y="106" width="4.2" height="10" rx="0" fill="#242a24"/><rect x="71.4" y="106" width="4.2" height="10" rx="0" fill="url(#led-active)"/><rect x="77.6" y="106" width="4.2" height="10" rx="0" fill="#242a24"/><rect x="77.6" y="106" width="4.2" height="10" rx="0" fill="url(#led-active)"/><rect x="83.8" y="106" width="4.2" height="10" rx="0" fill="#242a24"/><rect x="83.8" y="106" width="4.2" height="10" rx="0" fill="url(#led-active)"/><rect x="90.0" y="106" width="4.2" height="10" rx="0" fill="#242a24"/><rect x="90.0" y="106" width="4.2" height="10" rx="0" fill="url(#led-active)"/><path d="M90.0 120L90.0 123" stroke="#68716b"/><rect x="96.2" y="106" width="4.2" height="10" rx="0" fill="#242a24"/><rect x="96.2" y="106" width="4.2" height="10" rx="0" fill="url(#led-active)"/><rect x="102.4" y="106" width="4.2" height="10" rx="0" fill="#242a24"/><rect x="102.4" y="106" width="4.2" height="10" rx="0" fill="url(#led-active)"/><rect x="108.6" y="106" width="4.2" height="10" rx="0" fill="#242a24"/><rect x="108.6" y="106" width="4.2" height="10" rx="0" fill="url(#led-active)"/><rect x="114.8" y="106" width="4.2" height="10" rx="0" fill="#242a24"/><rect x="114.8" y="106" width="4.2" height="10" rx="0" fill="url(#led-active)"/><rect x="121.0" y="106" width="4.2" height="10" rx="0" fill="#242a24"/><rect x="121.0" y="106" width="4.2" height="10" rx="0" fill="url(#led-active)"/><path d="M121.0 120L121.0 123" stroke="#68716b"/><rect x="127.2" y="106" width="4.2" height="10" rx="0" fill="#242a24"/><rect x="127.2" y="106" width="4.2" height="10" rx="0" fill="url(#led-active)"/><rect x="133.4" y="106" width="4.2" height="10" rx="0" fill="#242a24"/><rect x="133.4" y="106" width="4.2" height="10" rx="0" fill="url(#led-active)"/><rect x="139.6" y="106" width="4.2" height="10" rx="0" fill="#242a24"/><rect x="139.6" y="106" width="4.2" height="10" rx="0" fill="url(#led-active)"/><rect x="145.8" y="106" width="4.2" height="10" rx="0" fill="#242a24"/><rect x="145.8" y="106" width="4.2" height="10" rx="0" fill="url(#led-active)"/><rect x="152.0" y="106" width="4.2" height="10" rx="0" fill="#242a24"/><rect x="152.0" y="106" width="4.2" height="10" rx="0" fill="url(#led-active)"/><path d="M152.0 120L152.0 123" stroke="#68716b"/><rect x="158.2" y="106" width="4.2" height="10" rx="0" fill="#242a24"/><rect x="158.2" y="106" width="4.2" height="10" rx="0" fill="url(#led-active)"/><rect x="164.4" y="106" width="4.2" height="10" rx="0" fill="#242a24"/><rect x="164.4" y="106" width="4.2" height="10" rx="0" fill="url(#led-active)"/><rect x="170.6" y="106" width="4.2" height="10" rx="0" fill="#242a24"/><rect x="170.6" y="106" width="4.2" height="10" rx="0" fill="url(#led-active)"/><rect x="176.8" y="106" width="4.2" height="10" rx="0" fill="#242a24"/><rect x="176.8" y="106" width="4.2" height="10" rx="0" fill="url(#led-active)"/><rect x="183.0" y="106" width="4.2" height="10" rx="0" fill="#242a24"/><rect x="183.0" y="106" width="4.2" height="10" rx="0" fill="url(#led-active)"/><path d="M183.0 120L183.0 123" stroke="#68716b"/><rect x="189.2" y="106" width="4.2" height="10" rx="0" fill="#242a24"/><rect x="189.2" y="106" width="4.2" height="10" rx="0" fill="url(#led-active)"/><rect x="195.4" y="106" width="4.2" height="10" rx="0" fill="#242a24"/><rect x="195.4" y="106" width="4.2" height="10" rx="0" fill="url(#led-active)"/><rect x="201.6" y="106" width="4.2" height="10" rx="0" fill="#242a24"/><rect x="201.6" y="106" width="4.2" height="10" rx="0" fill="url(#led-active)"/><rect x="207.8" y="106" width="4.2" height="10" rx="0" fill="#242a24"/><rect x="207.8" y="106" width="4.2" height="10" rx="0" fill="url(#led-active)"/><rect x="214.0" y="106" width="4.2" height="10" rx="0" fill="#242a24"/><rect x="214.0" y="106" width="4.2" height="10" rx="0" fill="url(#led-active)"/><path d="M214.0 120L214.0 123" stroke="#68716b"/><rect x="220.2" y="106" width="4.2" height="10" rx="0" fill="#242a24"/><rect x="220.2" y="106" width="4.2" height="10" rx="0" fill="url(#led-active)"/><rect x="226.4" y="106" width="4.2" height="10" rx="0" fill="#242a24"/><rect x="226.4" y="106" width="4.2" height="10" rx="0" fill="url(#led-active)"/><rect x="232.6" y="106" width="4.2" height="10" rx="0" fill="#242a24"/><rect x="232.6" y="106" width="4.2" height="10" rx="0" fill="url(#led-active)"/><rect x="238.8" y="106" width="4.2" height="10" rx="0" fill="#242a24"/><rect x="238.8" y="106" width="4.2" height="10" rx="0" fill="url(#led-active)"/><rect x="245.0" y="106" width="4.2" height="10" rx="0" fill="#242a24"/><rect x="245.0" y="106" width="4.2" height="10" rx="0" fill="url(#led-active)"/><path d="M245.0 120L245.0 123" stroke="#68716b"/><rect x="251.2" y="106" width="4.2" height="10" rx="0" fill="#242a24"/><rect x="251.2" y="106" width="4.2" height="10" rx="0" fill="url(#led-active)"/><rect x="257.4" y="106" width="4.2" height="10" rx="0" fill="#242a24"/><rect x="257.4" y="106" width="4.2" height="10" rx="0" fill="url(#led-active)"/><rect x="263.6" y="106" width="4.2" height="10" rx="0" fill="#242a24"/><rect x="263.6" y="106" width="4.2" height="10" rx="0" fill="url(#led-active)"/><rect x="269.8" y="106" width="4.2" height="10" rx="0" fill="#242a24"/><rect x="269.8" y="106" width="4.2" height="10" rx="0" fill="url(#led-active)"/><rect x="276.0" y="106" width="4.2" height="10" rx="0" fill="#242a24"/><rect x="276.0" y="106" width="4.2" height="10" rx="0" fill="url(#led-active)"/><path d="M276.0 120L276.0 123" stroke="#68716b"/><rect x="282.2" y="106" width="4.2" height="10" rx="0" fill="#242a24"/><rect x="282.2" y="106" width="4.2" height="10" rx="0" fill="url(#led-active)"/><rect x="288.4" y="106" width="4.2" height="10" rx="0" fill="#242a24"/><rect x="288.4" y="106" width="4.2" height="10" rx="0" fill="url(#led-active)"/><rect x="294.6" y="106" width="4.2" height="10" rx="0" fill="#242a24"/><rect x="294.6" y="106" width="4.2" height="10" rx="0" fill="url(#led-active)"/><rect x="300.8" y="106" width="4.2" height="10" rx="0" fill="#242a24"/><rect x="300.8" y="106" width="4.2" height="10" rx="0" fill="url(#led-active)"/><rect x="307.0" y="106" width="4.2" height="10" rx="0" fill="#242a24"/><rect x="307.0" y="106" width="0.538" height="10" rx="0" fill="url(#led-active)"/><path d="M307.0 120L307.0 123" stroke="#68716b"/><rect x="313.2" y="106" width="4.2" height="10" rx="0" fill="#242a24"/><rect x="319.4" y="106" width="4.2" height="10" rx="0" fill="#242a24"/><rect x="325.6" y="106" width="4.2" height="10" rx="0" fill="#242a24"/><rect x="331.8" y="106" width="4.2" height="10" rx="0" fill="#242a24"/><path d="M28 105H338" stroke="#111512"/>
<text x="28" y="149" font-size="13" fill="#dfddd4" text-anchor="start" font-weight="400">JavaScript</text>
<text x="452" y="149" font-size="13" fill="#8d979a" text-anchor="end" font-weight="400">6.0 kB</text>
<text x="452" y="168" font-size="13" fill="#e6ad59" text-anchor="end" font-weight="400">3.2%</text>
<rect x="26" y="155" width="314" height="18" rx="2" fill="#503e29" stroke="#746047"/><rect x="27" y="156" width="312" height="16" rx="1" fill="#070b0c" stroke="#101414"/><rect x="28.0" y="158" width="4.2" height="10" rx="0" fill="#242a24"/><rect x="28.0" y="158" width="4.2" height="10" rx="0" fill="url(#led-active)"/><path d="M28.0 172L28.0 175" stroke="#68716b"/><rect x="34.2" y="158" width="4.2" height="10" rx="0" fill="#242a24"/><rect x="34.2" y="158" width="3.686" height="10" rx="0" fill="url(#led-active)"/><rect x="40.4" y="158" width="4.2" height="10" rx="0" fill="#242a24"/><rect x="46.6" y="158" width="4.2" height="10" rx="0" fill="#242a24"/><rect x="52.8" y="158" width="4.2" height="10" rx="0" fill="#242a24"/><rect x="59.0" y="158" width="4.2" height="10" rx="0" fill="#242a24"/><path d="M59.0 172L59.0 175" stroke="#68716b"/><rect x="65.2" y="158" width="4.2" height="10" rx="0" fill="#242a24"/><rect x="71.4" y="158" width="4.2" height="10" rx="0" fill="#242a24"/><rect x="77.6" y="158" width="4.2" height="10" rx="0" fill="#242a24"/><rect x="83.8" y="158" width="4.2" height="10" rx="0" fill="#242a24"/><rect x="90.0" y="158" width="4.2" height="10" rx="0" fill="#242a24"/><path d="M90.0 172L90.0 175" stroke="#68716b"/><rect x="96.2" y="158" width="4.2" height="10" rx="0" fill="#242a24"/><rect x="102.4" y="158" width="4.2" height="10" rx="0" fill="#242a24"/><rect x="108.6" y="158" width="4.2" height="10" rx="0" fill="#242a24"/><rect x="114.8" y="158" width="4.2" height="10" rx="0" fill="#242a24"/><rect x="121.0" y="158" width="4.2" height="10" rx="0" fill="#242a24"/><path d="M121.0 172L121.0 175" stroke="#68716b"/><rect x="127.2" y="158" width="4.2" height="10" rx="0" fill="#242a24"/><rect x="133.4" y="158" width="4.2" height="10" rx="0" fill="#242a24"/><rect x="139.6" y="158" width="4.2" height="10" rx="0" fill="#242a24"/><rect x="145.8" y="158" width="4.2" height="10" rx="0" fill="#242a24"/><rect x="152.0" y="158" width="4.2" height="10" rx="0" fill="#242a24"/><path d="M152.0 172L152.0 175" stroke="#68716b"/><rect x="158.2" y="158" width="4.2" height="10" rx="0" fill="#242a24"/><rect x="164.4" y="158" width="4.2" height="10" rx="0" fill="#242a24"/><rect x="170.6" y="158" width="4.2" height="10" rx="0" fill="#242a24"/><rect x="176.8" y="158" width="4.2" height="10" rx="0" fill="#242a24"/><rect x="183.0" y="158" width="4.2" height="10" rx="0" fill="#242a24"/><path d="M183.0 172L183.0 175" stroke="#68716b"/><rect x="189.2" y="158" width="4.2" height="10" rx="0" fill="#242a24"/><rect x="195.4" y="158" width="4.2" height="10" rx="0" fill="#242a24"/><rect x="201.6" y="158" width="4.2" height="10" rx="0" fill="#242a24"/><rect x="207.8" y="158" width="4.2" height="10" rx="0" fill="#242a24"/><rect x="214.0" y="158" width="4.2" height="10" rx="0" fill="#242a24"/><path d="M214.0 172L214.0 175" stroke="#68716b"/><rect x="220.2" y="158" width="4.2" height="10" rx="0" fill="#242a24"/><rect x="226.4" y="158" width="4.2" height="10" rx="0" fill="#242a24"/><rect x="232.6" y="158" width="4.2" height="10" rx="0" fill="#242a24"/><rect x="238.8" y="158" width="4.2" height="10" rx="0" fill="#242a24"/><rect x="245.0" y="158" width="4.2" height="10" rx="0" fill="#242a24"/><path d="M245.0 172L245.0 175" stroke="#68716b"/><rect x="251.2" y="158" width="4.2" height="10" rx="0" fill="#242a24"/><rect x="257.4" y="158" width="4.2" height="10" rx="0" fill="#242a24"/><rect x="263.6" y="158" width="4.2" height="10" rx="0" fill="#242a24"/><rect x="269.8" y="158" width="4.2" height="10" rx="0" fill="#242a24"/><rect x="276.0" y="158" width="4.2" height="10" rx="0" fill="#242a24"/><path d="M276.0 172L276.0 175" stroke="#68716b"/><rect x="282.2" y="158" width="4.2" height="10" rx="0" fill="#242a24"/><rect x="288.4" y="158" width="4.2" height="10" rx="0" fill="#242a24"/><rect x="294.6" y="158" width="4.2" height="10" rx="0" fill="#242a24"/><rect x="300.8" y="158" width="4.2" height="10" rx="0" fill="#242a24"/><rect x="307.0" y="158" width="4.2" height="10" rx="0" fill="#242a24"/><path d="M307.0 172L307.0 175" stroke="#68716b"/><rect x="313.2" y="158" width="4.2" height="10" rx="0" fill="#242a24"/><rect x="319.4" y="158" width="4.2" height="10" rx="0" fill="#242a24"/><rect x="325.6" y="158" width="4.2" height="10" rx="0" fill="#242a24"/><rect x="331.8" y="158" width="4.2" height="10" rx="0" fill="#242a24"/><path d="M28 157H338" stroke="#111512"/>
<text x="28" y="201" font-size="13" fill="#dfddd4" text-anchor="start" font-weight="400">CSS</text>
<text x="452" y="201" font-size="13" fill="#8d979a" text-anchor="end" font-weight="400">5.6 kB</text>
<text x="452" y="220" font-size="13" fill="#e6ad59" text-anchor="end" font-weight="400">3.0%</text>
<rect x="26" y="207" width="314" height="18" rx="2" fill="#503e29" stroke="#746047"/><rect x="27" y="208" width="312" height="16" rx="1" fill="#070b0c" stroke="#101414"/><rect x="28.0" y="210" width="4.2" height="10" rx="0" fill="#242a24"/><rect x="28.0" y="210" width="4.2" height="10" rx="0" fill="url(#led-active)"/><path d="M28.0 224L28.0 227" stroke="#68716b"/><rect x="34.2" y="210" width="4.2" height="10" rx="0" fill="#242a24"/><rect x="34.2" y="210" width="2.969" height="10" rx="0" fill="url(#led-active)"/><rect x="40.4" y="210" width="4.2" height="10" rx="0" fill="#242a24"/><rect x="46.6" y="210" width="4.2" height="10" rx="0" fill="#242a24"/><rect x="52.8" y="210" width="4.2" height="10" rx="0" fill="#242a24"/><rect x="59.0" y="210" width="4.2" height="10" rx="0" fill="#242a24"/><path d="M59.0 224L59.0 227" stroke="#68716b"/><rect x="65.2" y="210" width="4.2" height="10" rx="0" fill="#242a24"/><rect x="71.4" y="210" width="4.2" height="10" rx="0" fill="#242a24"/><rect x="77.6" y="210" width="4.2" height="10" rx="0" fill="#242a24"/><rect x="83.8" y="210" width="4.2" height="10" rx="0" fill="#242a24"/><rect x="90.0" y="210" width="4.2" height="10" rx="0" fill="#242a24"/><path d="M90.0 224L90.0 227" stroke="#68716b"/><rect x="96.2" y="210" width="4.2" height="10" rx="0" fill="#242a24"/><rect x="102.4" y="210" width="4.2" height="10" rx="0" fill="#242a24"/><rect x="108.6" y="210" width="4.2" height="10" rx="0" fill="#242a24"/><rect x="114.8" y="210" width="4.2" height="10" rx="0" fill="#242a24"/><rect x="121.0" y="210" width="4.2" height="10" rx="0" fill="#242a24"/><path d="M121.0 224L121.0 227" stroke="#68716b"/><rect x="127.2" y="210" width="4.2" height="10" rx="0" fill="#242a24"/><rect x="133.4" y="210" width="4.2" height="10" rx="0" fill="#242a24"/><rect x="139.6" y="210" width="4.2" height="10" rx="0" fill="#242a24"/><rect x="145.8" y="210" width="4.2" height="10" rx="0" fill="#242a24"/><rect x="152.0" y="210" width="4.2" height="10" rx="0" fill="#242a24"/><path d="M152.0 224L152.0 227" stroke="#68716b"/><rect x="158.2" y="210" width="4.2" height="10" rx="0" fill="#242a24"/><rect x="164.4" y="210" width="4.2" height="10" rx="0" fill="#242a24"/><rect x="170.6" y="210" width="4.2" height="10" rx="0" fill="#242a24"/><rect x="176.8" y="210" width="4.2" height="10" rx="0" fill="#242a24"/><rect x="183.0" y="210" width="4.2" height="10" rx="0" fill="#242a24"/><path d="M183.0 224L183.0 227" stroke="#68716b"/><rect x="189.2" y="210" width="4.2" height="10" rx="0" fill="#242a24"/><rect x="195.4" y="210" width="4.2" height="10" rx="0" fill="#242a24"/><rect x="201.6" y="210" width="4.2" height="10" rx="0" fill="#242a24"/><rect x="207.8" y="210" width="4.2" height="10" rx="0" fill="#242a24"/><rect x="214.0" y="210" width="4.2" height="10" rx="0" fill="#242a24"/><path d="M214.0 224L214.0 227" stroke="#68716b"/><rect x="220.2" y="210" width="4.2" height="10" rx="0" fill="#242a24"/><rect x="226.4" y="210" width="4.2" height="10" rx="0" fill="#242a24"/><rect x="232.6" y="210" width="4.2" height="10" rx="0" fill="#242a24"/><rect x="238.8" y="210" width="4.2" height="10" rx="0" fill="#242a24"/><rect x="245.0" y="210" width="4.2" height="10" rx="0" fill="#242a24"/><path d="M245.0 224L245.0 227" stroke="#68716b"/><rect x="251.2" y="210" width="4.2" height="10" rx="0" fill="#242a24"/><rect x="257.4" y="210" width="4.2" height="10" rx="0" fill="#242a24"/><rect x="263.6" y="210" width="4.2" height="10" rx="0" fill="#242a24"/><rect x="269.8" y="210" width="4.2" height="10" rx="0" fill="#242a24"/><rect x="276.0" y="210" width="4.2" height="10" rx="0" fill="#242a24"/><path d="M276.0 224L276.0 227" stroke="#68716b"/><rect x="282.2" y="210" width="4.2" height="10" rx="0" fill="#242a24"/><rect x="288.4" y="210" width="4.2" height="10" rx="0" fill="#242a24"/><rect x="294.6" y="210" width="4.2" height="10" rx="0" fill="#242a24"/><rect x="300.8" y="210" width="4.2" height="10" rx="0" fill="#242a24"/><rect x="307.0" y="210" width="4.2" height="10" rx="0" fill="#242a24"/><path d="M307.0 224L307.0 227" stroke="#68716b"/><rect x="313.2" y="210" width="4.2" height="10" rx="0" fill="#242a24"/><rect x="319.4" y="210" width="4.2" height="10" rx="0" fill="#242a24"/><rect x="325.6" y="210" width="4.2" height="10" rx="0" fill="#242a24"/><rect x="331.8" y="210" width="4.2" height="10" rx="0" fill="#242a24"/><path d="M28 209H338" stroke="#111512"/>
<text x="28" y="253" font-size="13" fill="#dfddd4" text-anchor="start" font-weight="400">C#</text>
<text x="452" y="253" font-size="13" fill="#8d979a" text-anchor="end" font-weight="400">4.0 kB</text>
<text x="452" y="272" font-size="13" fill="#e6ad59" text-anchor="end" font-weight="400">2.1%</text>
<rect x="26" y="259" width="314" height="18" rx="2" fill="#503e29" stroke="#746047"/><rect x="27" y="260" width="312" height="16" rx="1" fill="#070b0c" stroke="#101414"/><rect x="28.0" y="262" width="4.2" height="10" rx="0" fill="#242a24"/><rect x="28.0" y="262" width="4.2" height="10" rx="0" fill="url(#led-active)"/><path d="M28.0 276L28.0 279" stroke="#68716b"/><rect x="34.2" y="262" width="4.2" height="10" rx="0" fill="#242a24"/><rect x="34.2" y="262" width="0.316" height="10" rx="0" fill="url(#led-active)"/><rect x="40.4" y="262" width="4.2" height="10" rx="0" fill="#242a24"/><rect x="46.6" y="262" width="4.2" height="10" rx="0" fill="#242a24"/><rect x="52.8" y="262" width="4.2" height="10" rx="0" fill="#242a24"/><rect x="59.0" y="262" width="4.2" height="10" rx="0" fill="#242a24"/><path d="M59.0 276L59.0 279" stroke="#68716b"/><rect x="65.2" y="262" width="4.2" height="10" rx="0" fill="#242a24"/><rect x="71.4" y="262" width="4.2" height="10" rx="0" fill="#242a24"/><rect x="77.6" y="262" width="4.2" height="10" rx="0" fill="#242a24"/><rect x="83.8" y="262" width="4.2" height="10" rx="0" fill="#242a24"/><rect x="90.0" y="262" width="4.2" height="10" rx="0" fill="#242a24"/><path d="M90.0 276L90.0 279" stroke="#68716b"/><rect x="96.2" y="262" width="4.2" height="10" rx="0" fill="#242a24"/><rect x="102.4" y="262" width="4.2" height="10" rx="0" fill="#242a24"/><rect x="108.6" y="262" width="4.2" height="10" rx="0" fill="#242a24"/><rect x="114.8" y="262" width="4.2" height="10" rx="0" fill="#242a24"/><rect x="121.0" y="262" width="4.2" height="10" rx="0" fill="#242a24"/><path d="M121.0 276L121.0 279" stroke="#68716b"/><rect x="127.2" y="262" width="4.2" height="10" rx="0" fill="#242a24"/><rect x="133.4" y="262" width="4.2" height="10" rx="0" fill="#242a24"/><rect x="139.6" y="262" width="4.2" height="10" rx="0" fill="#242a24"/><rect x="145.8" y="262" width="4.2" height="10" rx="0" fill="#242a24"/><rect x="152.0" y="262" width="4.2" height="10" rx="0" fill="#242a24"/><path d="M152.0 276L152.0 279" stroke="#68716b"/><rect x="158.2" y="262" width="4.2" height="10" rx="0" fill="#242a24"/><rect x="164.4" y="262" width="4.2" height="10" rx="0" fill="#242a24"/><rect x="170.6" y="262" width="4.2" height="10" rx="0" fill="#242a24"/><rect x="176.8" y="262" width="4.2" height="10" rx="0" fill="#242a24"/><rect x="183.0" y="262" width="4.2" height="10" rx="0" fill="#242a24"/><path d="M183.0 276L183.0 279" stroke="#68716b"/><rect x="189.2" y="262" width="4.2" height="10" rx="0" fill="#242a24"/><rect x="195.4" y="262" width="4.2" height="10" rx="0" fill="#242a24"/><rect x="201.6" y="262" width="4.2" height="10" rx="0" fill="#242a24"/><rect x="207.8" y="262" width="4.2" height="10" rx="0" fill="#242a24"/><rect x="214.0" y="262" width="4.2" height="10" rx="0" fill="#242a24"/><path d="M214.0 276L214.0 279" stroke="#68716b"/><rect x="220.2" y="262" width="4.2" height="10" rx="0" fill="#242a24"/><rect x="226.4" y="262" width="4.2" height="10" rx="0" fill="#242a24"/><rect x="232.6" y="262" width="4.2" height="10" rx="0" fill="#242a24"/><rect x="238.8" y="262" width="4.2" height="10" rx="0" fill="#242a24"/><rect x="245.0" y="262" width="4.2" height="10" rx="0" fill="#242a24"/><path d="M245.0 276L245.0 279" stroke="#68716b"/><rect x="251.2" y="262" width="4.2" height="10" rx="0" fill="#242a24"/><rect x="257.4" y="262" width="4.2" height="10" rx="0" fill="#242a24"/><rect x="263.6" y="262" width="4.2" height="10" rx="0" fill="#242a24"/><rect x="269.8" y="262" width="4.2" height="10" rx="0" fill="#242a24"/><rect x="276.0" y="262" width="4.2" height="10" rx="0" fill="#242a24"/><path d="M276.0 276L276.0 279" stroke="#68716b"/><rect x="282.2" y="262" width="4.2" height="10" rx="0" fill="#242a24"/><rect x="288.4" y="262" width="4.2" height="10" rx="0" fill="#242a24"/><rect x="294.6" y="262" width="4.2" height="10" rx="0" fill="#242a24"/><rect x="300.8" y="262" width="4.2" height="10" rx="0" fill="#242a24"/><rect x="307.0" y="262" width="4.2" height="10" rx="0" fill="#242a24"/><path d="M307.0 276L307.0 279" stroke="#68716b"/><rect x="313.2" y="262" width="4.2" height="10" rx="0" fill="#242a24"/><rect x="319.4" y="262" width="4.2" height="10" rx="0" fill="#242a24"/><rect x="325.6" y="262" width="4.2" height="10" rx="0" fill="#242a24"/><rect x="331.8" y="262" width="4.2" height="10" rx="0" fill="#242a24"/><path d="M28 261H338" stroke="#111512"/>
<text x="28" y="305" font-size="13" fill="#dfddd4" text-anchor="start" font-weight="400">HTML</text>
<text x="452" y="305" font-size="13" fill="#8d979a" text-anchor="end" font-weight="400">2.4 kB</text>
<text x="452" y="324" font-size="13" fill="#e6ad59" text-anchor="end" font-weight="400">1.3%</text>
<rect x="26" y="311" width="314" height="18" rx="2" fill="#503e29" stroke="#746047"/><rect x="27" y="312" width="312" height="16" rx="1" fill="#070b0c" stroke="#101414"/><rect x="28.0" y="314" width="4.2" height="10" rx="0" fill="#242a24"/><rect x="28.0" y="314" width="3.879" height="10" rx="0" fill="url(#led-active)"/><path d="M28.0 328L28.0 331" stroke="#68716b"/><rect x="34.2" y="314" width="4.2" height="10" rx="0" fill="#242a24"/><rect x="40.4" y="314" width="4.2" height="10" rx="0" fill="#242a24"/><rect x="46.6" y="314" width="4.2" height="10" rx="0" fill="#242a24"/><rect x="52.8" y="314" width="4.2" height="10" rx="0" fill="#242a24"/><rect x="59.0" y="314" width="4.2" height="10" rx="0" fill="#242a24"/><path d="M59.0 328L59.0 331" stroke="#68716b"/><rect x="65.2" y="314" width="4.2" height="10" rx="0" fill="#242a24"/><rect x="71.4" y="314" width="4.2" height="10" rx="0" fill="#242a24"/><rect x="77.6" y="314" width="4.2" height="10" rx="0" fill="#242a24"/><rect x="83.8" y="314" width="4.2" height="10" rx="0" fill="#242a24"/><rect x="90.0" y="314" width="4.2" height="10" rx="0" fill="#242a24"/><path d="M90.0 328L90.0 331" stroke="#68716b"/><rect x="96.2" y="314" width="4.2" height="10" rx="0" fill="#242a24"/><rect x="102.4" y="314" width="4.2" height="10" rx="0" fill="#242a24"/><rect x="108.6" y="314" width="4.2" height="10" rx="0" fill="#242a24"/><rect x="114.8" y="314" width="4.2" height="10" rx="0" fill="#242a24"/><rect x="121.0" y="314" width="4.2" height="10" rx="0" fill="#242a24"/><path d="M121.0 328L121.0 331" stroke="#68716b"/><rect x="127.2" y="314" width="4.2" height="10" rx="0" fill="#242a24"/><rect x="133.4" y="314" width="4.2" height="10" rx="0" fill="#242a24"/><rect x="139.6" y="314" width="4.2" height="10" rx="0" fill="#242a24"/><rect x="145.8" y="314" width="4.2" height="10" rx="0" fill="#242a24"/><rect x="152.0" y="314" width="4.2" height="10" rx="0" fill="#242a24"/><path d="M152.0 328L152.0 331" stroke="#68716b"/><rect x="158.2" y="314" width="4.2" height="10" rx="0" fill="#242a24"/><rect x="164.4" y="314" width="4.2" height="10" rx="0" fill="#242a24"/><rect x="170.6" y="314" width="4.2" height="10" rx="0" fill="#242a24"/><rect x="176.8" y="314" width="4.2" height="10" rx="0" fill="#242a24"/><rect x="183.0" y="314" width="4.2" height="10" rx="0" fill="#242a24"/><path d="M183.0 328L183.0 331" stroke="#68716b"/><rect x="189.2" y="314" width="4.2" height="10" rx="0" fill="#242a24"/><rect x="195.4" y="314" width="4.2" height="10" rx="0" fill="#242a24"/><rect x="201.6" y="314" width="4.2" height="10" rx="0" fill="#242a24"/><rect x="207.8" y="314" width="4.2" height="10" rx="0" fill="#242a24"/><rect x="214.0" y="314" width="4.2" height="10" rx="0" fill="#242a24"/><path d="M214.0 328L214.0 331" stroke="#68716b"/><rect x="220.2" y="314" width="4.2" height="10" rx="0" fill="#242a24"/><rect x="226.4" y="314" width="4.2" height="10" rx="0" fill="#242a24"/><rect x="232.6" y="314" width="4.2" height="10" rx="0" fill="#242a24"/><rect x="238.8" y="314" width="4.2" height="10" rx="0" fill="#242a24"/><rect x="245.0" y="314" width="4.2" height="10" rx="0" fill="#242a24"/><path d="M245.0 328L245.0 331" stroke="#68716b"/><rect x="251.2" y="314" width="4.2" height="10" rx="0" fill="#242a24"/><rect x="257.4" y="314" width="4.2" height="10" rx="0" fill="#242a24"/><rect x="263.6" y="314" width="4.2" height="10" rx="0" fill="#242a24"/><rect x="269.8" y="314" width="4.2" height="10" rx="0" fill="#242a24"/><rect x="276.0" y="314" width="4.2" height="10" rx="0" fill="#242a24"/><path d="M276.0 328L276.0 331" stroke="#68716b"/><rect x="282.2" y="314" width="4.2" height="10" rx="0" fill="#242a24"/><rect x="288.4" y="314" width="4.2" height="10" rx="0" fill="#242a24"/><rect x="294.6" y="314" width="4.2" height="10" rx="0" fill="#242a24"/><rect x="300.8" y="314" width="4.2" height="10" rx="0" fill="#242a24"/><rect x="307.0" y="314" width="4.2" height="10" rx="0" fill="#242a24"/><path d="M307.0 328L307.0 331" stroke="#68716b"/><rect x="313.2" y="314" width="4.2" height="10" rx="0" fill="#242a24"/><rect x="319.4" y="314" width="4.2" height="10" rx="0" fill="#242a24"/><rect x="325.6" y="314" width="4.2" height="10" rx="0" fill="#242a24"/><rect x="331.8" y="314" width="4.2" height="10" rx="0" fill="#242a24"/><path d="M28 313H338" stroke="#111512"/>
<text x="28" y="357" font-size="13" fill="#dfddd4" text-anchor="start" font-weight="400">Shell</text>
<text x="452" y="357" font-size="13" fill="#8d979a" text-anchor="end" font-weight="400">618 B</text>
<text x="452" y="376" font-size="13" fill="#e6ad59" text-anchor="end" font-weight="400">0.3%</text>
<rect x="26" y="363" width="314" height="18" rx="2" fill="#503e29" stroke="#746047"/><rect x="27" y="364" width="312" height="16" rx="1" fill="#070b0c" stroke="#101414"/><rect x="28.0" y="366" width="4.2" height="10" rx="0" fill="#242a24"/><rect x="28.0" y="366" width="1.012" height="10" rx="0" fill="url(#led-active)"/><path d="M28.0 380L28.0 383" stroke="#68716b"/><rect x="34.2" y="366" width="4.2" height="10" rx="0" fill="#242a24"/><rect x="40.4" y="366" width="4.2" height="10" rx="0" fill="#242a24"/><rect x="46.6" y="366" width="4.2" height="10" rx="0" fill="#242a24"/><rect x="52.8" y="366" width="4.2" height="10" rx="0" fill="#242a24"/><rect x="59.0" y="366" width="4.2" height="10" rx="0" fill="#242a24"/><path d="M59.0 380L59.0 383" stroke="#68716b"/><rect x="65.2" y="366" width="4.2" height="10" rx="0" fill="#242a24"/><rect x="71.4" y="366" width="4.2" height="10" rx="0" fill="#242a24"/><rect x="77.6" y="366" width="4.2" height="10" rx="0" fill="#242a24"/><rect x="83.8" y="366" width="4.2" height="10" rx="0" fill="#242a24"/><rect x="90.0" y="366" width="4.2" height="10" rx="0" fill="#242a24"/><path d="M90.0 380L90.0 383" stroke="#68716b"/><rect x="96.2" y="366" width="4.2" height="10" rx="0" fill="#242a24"/><rect x="102.4" y="366" width="4.2" height="10" rx="0" fill="#242a24"/><rect x="108.6" y="366" width="4.2" height="10" rx="0" fill="#242a24"/><rect x="114.8" y="366" width="4.2" height="10" rx="0" fill="#242a24"/><rect x="121.0" y="366" width="4.2" height="10" rx="0" fill="#242a24"/><path d="M121.0 380L121.0 383" stroke="#68716b"/><rect x="127.2" y="366" width="4.2" height="10" rx="0" fill="#242a24"/><rect x="133.4" y="366" width="4.2" height="10" rx="0" fill="#242a24"/><rect x="139.6" y="366" width="4.2" height="10" rx="0" fill="#242a24"/><rect x="145.8" y="366" width="4.2" height="10" rx="0" fill="#242a24"/><rect x="152.0" y="366" width="4.2" height="10" rx="0" fill="#242a24"/><path d="M152.0 380L152.0 383" stroke="#68716b"/><rect x="158.2" y="366" width="4.2" height="10" rx="0" fill="#242a24"/><rect x="164.4" y="366" width="4.2" height="10" rx="0" fill="#242a24"/><rect x="170.6" y="366" width="4.2" height="10" rx="0" fill="#242a24"/><rect x="176.8" y="366" width="4.2" height="10" rx="0" fill="#242a24"/><rect x="183.0" y="366" width="4.2" height="10" rx="0" fill="#242a24"/><path d="M183.0 380L183.0 383" stroke="#68716b"/><rect x="189.2" y="366" width="4.2" height="10" rx="0" fill="#242a24"/><rect x="195.4" y="366" width="4.2" height="10" rx="0" fill="#242a24"/><rect x="201.6" y="366" width="4.2" height="10" rx="0" fill="#242a24"/><rect x="207.8" y="366" width="4.2" height="10" rx="0" fill="#242a24"/><rect x="214.0" y="366" width="4.2" height="10" rx="0" fill="#242a24"/><path d="M214.0 380L214.0 383" stroke="#68716b"/><rect x="220.2" y="366" width="4.2" height="10" rx="0" fill="#242a24"/><rect x="226.4" y="366" width="4.2" height="10" rx="0" fill="#242a24"/><rect x="232.6" y="366" width="4.2" height="10" rx="0" fill="#242a24"/><rect x="238.8" y="366" width="4.2" height="10" rx="0" fill="#242a24"/><rect x="245.0" y="366" width="4.2" height="10" rx="0" fill="#242a24"/><path d="M245.0 380L245.0 383" stroke="#68716b"/><rect x="251.2" y="366" width="4.2" height="10" rx="0" fill="#242a24"/><rect x="257.4" y="366" width="4.2" height="10" rx="0" fill="#242a24"/><rect x="263.6" y="366" width="4.2" height="10" rx="0" fill="#242a24"/><rect x="269.8" y="366" width="4.2" height="10" rx="0" fill="#242a24"/><rect x="276.0" y="366" width="4.2" height="10" rx="0" fill="#242a24"/><path d="M276.0 380L276.0 383" stroke="#68716b"/><rect x="282.2" y="366" width="4.2" height="10" rx="0" fill="#242a24"/><rect x="288.4" y="366" width="4.2" height="10" rx="0" fill="#242a24"/><rect x="294.6" y="366" width="4.2" height="10" rx="0" fill="#242a24"/><rect x="300.8" y="366" width="4.2" height="10" rx="0" fill="#242a24"/><rect x="307.0" y="366" width="4.2" height="10" rx="0" fill="#242a24"/><path d="M307.0 380L307.0 383" stroke="#68716b"/><rect x="313.2" y="366" width="4.2" height="10" rx="0" fill="#242a24"/><rect x="319.4" y="366" width="4.2" height="10" rx="0" fill="#242a24"/><rect x="325.6" y="366" width="4.2" height="10" rx="0" fill="#242a24"/><rect x="331.8" y="366" width="4.2" height="10" rx="0" fill="#242a24"/><path d="M28 365H338" stroke="#111512"/>
</svg>