<svg xmlns="http://www.w3.org/2000/svg" width="960" height="202" viewBox="0 0 960 202" role="img" aria-labelledby="title desc">
<title id="title">01 / ACCOUNT COUNTERS</title><desc id="desc">GitHub account snapshot: stars, owned public repositories, followers, observed push commits within 90 days, and contribution streak. Unavailable counters read N/A.</desc>
<defs>
<linearGradient id="mat-face" x1="0" y1="0" x2=".12" y2="1"><stop stop-color="#3c4448"/><stop offset=".025" stop-color="#272f33"/><stop offset=".3" stop-color="#242c30"/><stop offset=".82" stop-color="#1b2226"/><stop offset="1" stop-color="#252d31"/></linearGradient>
<linearGradient id="mat-edge" x1="0" y1="0" x2=".35" y2="1"><stop stop-color="#9a9d97"/><stop offset=".035" stop-color="#586368"/><stop offset=".45" stop-color="#222c31"/><stop offset="1" stop-color="#080d10"/></linearGradient>
<linearGradient id="mat-header" x1="0" y1="0" x2="0" y2="1"><stop stop-color="#40494d"/><stop offset=".07" stop-color="#343d41"/><stop offset=".65" stop-color="#282f33"/><stop offset="1" stop-color="#20272b"/></linearGradient>
<radialGradient id="mat-light" cx=".15" cy="0" r="1.1"><stop stop-color="#9ca6a3" stop-opacity=".07"/><stop offset=".6" stop-color="#9ca6a3" stop-opacity="0"/><stop offset="1" stop-color="#000609" stop-opacity=".14"/></radialGradient>
<linearGradient id="mat-screw" x1="0" y1="0" x2=".9" y2="1"><stop stop-color="#c3c8c3"/><stop offset=".2" stop-color="#737f83"/><stop offset=".45" stop-color="#acb3af"/><stop offset=".7" stop-color="#48575e"/><stop offset="1" stop-color="#26363e"/></linearGradient>
<linearGradient id="mat-bezel" x1="0" y1="0" x2=".05" y2="1"><stop stop-color="#05090b"/><stop offset=".14" stop-color="#111b20"/><stop offset=".86" stop-color="#19252a"/><stop offset="1" stop-color="#647074"/></linearGradient>
<linearGradient id="mat-glass" x1="0" y1="0" x2=".12" y2="1"><stop stop-color="#111c1d"/><stop offset=".16" stop-color="#091314"/><stop offset=".7" stop-color="#0a1313"/><stop offset="1" stop-color="#121a17"/></linearGradient>
<linearGradient id="mat-reflection" x1="0" y1="0" x2=".8" y2="1"><stop stop-color="#c4d3cd" stop-opacity=".085"/><stop offset=".3" stop-color="#c4d3cd" stop-opacity=".013"/><stop offset="1" stop-color="#c4d3cd" stop-opacity="0"/></linearGradient>
<linearGradient id="mat-phosphor" x1="0" y1="0" x2="0" y2="1"><stop stop-color="#ffe1a0"/><stop offset=".35" stop-color="#e9b666"/><stop offset="1" stop-color="#c48b3c"/></linearGradient>
<linearGradient id="mat-amber-meter" x1="0" y1="0" x2="0" y2="1"><stop stop-color="#f4cf8a"/><stop offset=".18" stop-color="#ecbc6f"/><stop offset=".62" stop-color="#d59d47"/><stop offset="1" stop-color="#98612d"/></linearGradient>
<linearGradient id="mat-counter-drum" x1="0" y1="0" x2="0" y2="1"><stop stop-color="#050a0c"/><stop offset=".22" stop-color="#263031"/><stop offset=".48" stop-color="#1c2627"/><stop offset=".51" stop-color="#111d20"/><stop offset=".77" stop-color="#1b282a"/><stop offset="1" stop-color="#060d10"/></linearGradient>
<radialGradient id="mat-led"><stop stop-color="#fff2bb"/><stop offset=".22" stop-color="#f3ca76"/><stop offset=".63" stop-color="#d89c3a"/><stop offset="1" stop-color="#6e421e"/></radialGradient>
<pattern id="mat-brush" width="73" height="6" patternUnits="userSpaceOnUse"><path d="M0 .5H73M9 2.5H42M49 4.5H71" fill="none" stroke="#dae0de" stroke-width=".3" opacity=".075"/><path d="M4 1.5H46M32 5.5H69" stroke="#030608" stroke-width=".4" opacity=".14"/></pattern>
<pattern id="mat-pixels" width="3" height="3" patternUnits="userSpaceOnUse"><path d="M0 .5H3" stroke="#050809" stroke-width=".45" opacity=".2"/><circle cx="1.5" cy="1.5" r=".22" fill="#a8b7a8" opacity=".085"/></pattern>
<pattern id="mat-grain" width="59" height="43" patternUnits="userSpaceOnUse"><circle cx="7" cy="11" r="0.16" fill="#040708" opacity="0.2"/><circle cx="24" cy="34" r="0.24" fill="#e2e4dd" opacity="0.09"/><circle cx="41" cy="14" r="0.32" fill="#e2e4dd" opacity="0.09"/><circle cx="58" cy="37" r="0.4" fill="#040708" opacity="0.2"/><circle cx="16" cy="17" r="0.16" fill="#e2e4dd" opacity="0.09"/><circle cx="33" cy="40" r="0.24" fill="#e2e4dd" opacity="0.09"/><circle cx="50" cy="20" r="0.32" fill="#040708" opacity="0.2"/><circle cx="8" cy="0" r="0.4" fill="#e2e4dd" opacity="0.09"/><circle cx="25" cy="23" r="0.16" fill="#e2e4dd" opacity="0.09"/><circle cx="42" cy="3" r="0.24" fill="#040708" opacity="0.2"/><circle cx="0" cy="26" r="0.32" fill="#e2e4dd" opacity="0.09"/><circle cx="17" cy="6" r="0.4" fill="#e2e4dd" opacity="0.09"/><circle cx="34" cy="29" r="0.16" fill="#040708" opacity="0.2"/><circle cx="51" cy="9" r="0.24" fill="#e2e4dd" opacity="0.09"/><circle cx="9" cy="32" r="0.32" fill="#e2e4dd" opacity="0.09"/><circle cx="26" cy="12" r="0.4" fill="#040708" opacity="0.2"/><circle cx="43" cy="35" r="0.16" fill="#e2e4dd" opacity="0.09"/><circle cx="1" cy="15" r="0.24" fill="#e2e4dd" opacity="0.09"/><circle cx="18" cy="38" r="0.32" fill="#040708" opacity="0.2"/><circle cx="35" cy="18" r="0.4" fill="#e2e4dd" opacity="0.09"/><circle cx="52" cy="41" r="0.16" fill="#e2e4dd" opacity="0.09"/><circle cx="10" cy="21" r="0.24" fill="#040708" opacity="0.2"/><circle cx="27" cy="1" r="0.32" fill="#e2e4dd" opacity="0.09"/><circle cx="44" cy="24" r="0.4" fill="#e2e4dd" opacity="0.09"/><circle cx="2" cy="4" r="0.16" fill="#040708" opacity="0.2"/><circle cx="19" cy="27" r="0.24" fill="#e2e4dd" opacity="0.09"/><circle cx="36" cy="7" r="0.32" fill="#e2e4dd" opacity="0.09"/><circle cx="53" cy="30" r="0.4" fill="#040708" opacity="0.2"/><circle cx="11" cy="10" r="0.16" fill="#e2e4dd" opacity="0.09"/><circle cx="28" cy="33" r="0.24" fill="#e2e4dd" opacity="0.09"/><circle cx="45" cy="13" r="0.32" fill="#040708" opacity="0.2"/><circle cx="3" cy="36" r="0.4" fill="#e2e4dd" opacity="0.09"/><circle cx="20" cy="16" r="0.16" fill="#e2e4dd" opacity="0.09"/><circle cx="37" cy="39" r="0.24" fill="#040708" opacity="0.2"/><circle cx="54" cy="19" r="0.32" fill="#e2e4dd" opacity="0.09"/><circle cx="12" cy="42" r="0.4" fill="#e2e4dd" opacity="0.09"/><circle cx="29" cy="22" r="0.16" fill="#040708" opacity="0.2"/><circle cx="46" cy="2" r="0.24" fill="#e2e4dd" opacity="0.09"/><circle cx="4" cy="25" r="0.32" fill="#e2e4dd" opacity="0.09"/><circle cx="21" cy="5" r="0.4" fill="#040708" opacity="0.2"/><circle cx="38" cy="28" r="0.16" fill="#e2e4dd" opacity="0.09"/><circle cx="55" cy="8" r="0.24" fill="#e2e4dd" opacity="0.09"/><circle cx="13" cy="31" r="0.32" fill="#040708" opacity="0.2"/><circle cx="30" cy="11" r="0.4" fill="#e2e4dd" opacity="0.09"/><circle cx="47" cy="34" r="0.16" fill="#e2e4dd" opacity="0.09"/><circle cx="5" cy="14" r="0.24" fill="#040708" opacity="0.2"/><circle cx="22" cy="37" r="0.32" fill="#e2e4dd" opacity="0.09"/><circle cx="39" cy="17" r="0.4" fill="#e2e4dd" opacity="0.09"/></pattern>
<filter id="mat-small-bloom" x="-35%" y="-45%" width="170%" height="190%" color-interpolation-filters="sRGB"><feGaussianBlur stdDeviation=".75"/></filter>
</defs>
<defs><linearGradient id="led-active" x1="0" y1="0" x2="0" y2="1"><stop stop-color="#ffe0a1"/><stop offset=".42" stop-color="#eab760"/><stop offset="1" stop-color="#a9702d"/></linearGradient>
<style>text{font-family:Consolas,'Liberation Mono',monospace}@media(prefers-reduced-motion:reduce){.event-scroll{animation:none!important}}</style></defs>
<metadata id="stats-cache">{"data":{"commits_90d":null,"current_streak":136,"followers":10,"following":4,"forks":0,"longest_streak":136,"public_repos":10,"repos":3,"stars":0,"total_year":1908},"kind":"stats","sampled_at":"2026-09-06T14:56:01.100351+00:00","status":"SNAPSHOT","version":2}</metadata>
<rect x="1" y="3" width="958" height="198" rx="6" fill="#05090c"/><rect x=".5" y=".5" width="959" height="200" rx="6" fill="url(#mat-face)" stroke="#070d11"/><rect x="1.5" y="1.5" width="957" height="198" rx="5" fill="none" stroke="url(#mat-edge)"/><rect x="3" y="3" width="954" height="194" rx="4" fill="url(#mat-light)"/><rect x="3" y="3" width="954" height="194" rx="4" fill="url(#mat-brush)"/><rect x="3" y="3" width="954" height="194" rx="4" fill="url(#mat-grain)"/><rect x="4" y="4" width="952" height="30" rx="3" fill="url(#mat-header)"/><path d="M6 35.5H954" stroke="#0d1418"/><path d="M6 36.5H954" stroke="#60696a" stroke-opacity=".32"/><path d="M8 198.5H952" stroke="#68736f" stroke-opacity=".23"/><g transform="translate(11 20)"><circle cy=".65" r="4.3" fill="#060a0d" opacity=".9"/><circle r="3.45" fill="#111a1f" stroke="#4d585d" stroke-width=".45"/><circle r="3" fill="url(#mat-screw)"/><circle r="2.2" fill="none" stroke="#d3d5c9" stroke-opacity=".23" stroke-width=".35"/><polygon points="0.000,-1.380 0.465,-0.805 1.195,-0.690 0.930,0.000 1.195,0.690 0.465,0.805 0.000,1.380 -0.465,0.805 -1.195,0.690 -0.930,0.000 -1.195,-0.690 -0.465,-0.805" fill="#0d171d" stroke="#1b2b33" stroke-width=".5"/><path d="M-1.9500000000000002 -1.7399999999999998Q0 -3.12 1.7999999999999998 -2.04" fill="none" stroke="#f2f0dd" stroke-opacity=".5" stroke-width=".45"/></g><g transform="translate(949 20)"><circle cy=".65" r="4.3" fill="#060a0d" opacity=".9"/><circle r="3.45" fill="#111a1f" stroke="#4d585d" stroke-width=".45"/><circle r="3" fill="url(#mat-screw)"/><circle r="2.2" fill="none" stroke="#d3d5c9" stroke-opacity=".23" stroke-width=".35"/><polygon points="0.000,-1.380 0.465,-0.805 1.195,-0.690 0.930,0.000 1.195,0.690 0.465,0.805 0.000,1.380 -0.465,0.805 -1.195,0.690 -0.930,0.000 -1.195,-0.690 -0.465,-0.805" fill="#0d171d" stroke="#1b2b33" stroke-width=".5"/><path d="M-1.9500000000000002 -1.7399999999999998Q0 -3.12 1.7999999999999998 -2.04" fill="none" stroke="#f2f0dd" stroke-opacity=".5" stroke-width=".45"/></g>
<text x="32" y="25" font-size="13" fill="#dfddd4" text-anchor="start" font-weight="700">01 / ACCOUNT COUNTERS</text>
<text x="928" y="25" font-size="13" fill="#e6ad59" text-anchor="end" font-weight="400">SNAPSHOT</text>
<path d="M16 172H944" stroke="#343a3d"/>
<text x="24" y="191" font-size="13" fill="#8d979a" text-anchor="start" font-weight="400">2026-09-06 14:56 UTC</text>
<text x="936" y="191" font-size="13" fill="#8d979a" text-anchor="end" font-weight="400">GITHUB / lordware</text>
<rect x="15" y="51" width="183" height="110" rx="5" fill="#080f13" stroke="#34454d" stroke-width=".6"/><rect x="16" y="52" width="181" height="108" rx="4" fill="url(#mat-bezel)"/><rect x="18" y="54" width="177" height="104" rx="3" fill="url(#mat-glass)" stroke="#080f10"/><rect x="18.5" y="54.5" width="176" height="103" rx="3" fill="url(#mat-pixels)"/><path d="M21 55H192" stroke="#03090b" stroke-width="2"/><path d="M19 57V155" stroke="#03090b" stroke-width="1.4"/><path d="M21 159.5H192" stroke="#81908b" stroke-opacity=".32" stroke-width=".7"/><rect x="20" y="56" width="173" height="100" rx="2" fill="url(#mat-reflection)"/>
<text x="30" y="73" font-size="13" fill="#8d979a" text-anchor="start" font-weight="400">STARS</text>
<rect x="27" y="81" width="159" height="43" rx="2" fill="#080d0b" stroke="#30372e"/>
<path d="M29 82H184" stroke="#030505"/>
<g role="img" aria-label="0"><title>0</title><g transform="translate(33 86) scale(1.0)" aria-hidden="true"><g transform="translate(0 0)"><path d="M3 1H17L14 4H6Z" fill="#292b23"/><path d="M18 2V16L15 14V5Z" fill="#292b23"/><path d="M18 18V32L15 29V20Z" fill="#292b23"/><path d="M3 33H17L14 30H6Z" fill="#292b23"/><path d="M2 18V32L5 29V20Z" fill="#292b23"/><path d="M2 2V16L5 14V5Z" fill="#292b23"/><path d="M3 17L6 14.8H14L17 17L14 19.2H6Z" fill="#292b23"/></g><g transform="translate(24 0)"><path d="M3 1H17L14 4H6Z" fill="#292b23"/><path d="M18 2V16L15 14V5Z" fill="#292b23"/><path d="M18 18V32L15 29V20Z" fill="#292b23"/><path d="M3 33H17L14 30H6Z" fill="#292b23"/><path d="M2 18V32L5 29V20Z" fill="#292b23"/><path d="M2 2V16L5 14V5Z" fill="#292b23"/><path d="M3 17L6 14.8H14L17 17L14 19.2H6Z" fill="#292b23"/></g><g transform="translate(48 0)"><path d="M3 1H17L14 4H6Z" fill="#292b23"/><path d="M18 2V16L15 14V5Z" fill="#292b23"/><path d="M18 18V32L15 29V20Z" fill="#292b23"/><path d="M3 33H17L14 30H6Z" fill="#292b23"/><path d="M2 18V32L5 29V20Z" fill="#292b23"/><path d="M2 2V16L5 14V5Z" fill="#292b23"/><path d="M3 17L6 14.8H14L17 17L14 19.2H6Z" fill="#292b23"/></g><g transform="translate(72 0)"><path d="M3 1H17L14 4H6Z" fill="url(#led-active)" stroke="#f3ca80" stroke-width=".24"/><path d="M18 2V16L15 14V5Z" fill="url(#led-active)" stroke="#f3ca80" stroke-width=".24"/><path d="M18 18V32L15 29V20Z" fill="url(#led-active)" stroke="#f3ca80" stroke-width=".24"/><path d="M3 33H17L14 30H6Z" fill="url(#led-active)" stroke="#f3ca80" stroke-width=".24"/><path d="M2 18V32L5 29V20Z" fill="url(#led-active)" stroke="#f3ca80" stroke-width=".24"/><path d="M2 2V16L5 14V5Z" fill="url(#led-active)" stroke="#f3ca80" stroke-width=".24"/><path d="M3 17L6 14.8H14L17 17L14 19.2H6Z" fill="#292b23"/></g></g></g>
<path d="M30 126H183" stroke="#343c32"/>
<text x="30" y="148" font-size="11" fill="#8d979a" text-anchor="start" font-weight="400">owned repositories</text>
<rect x="202" y="51" width="183" height="110" rx="5" fill="#080f13" stroke="#34454d" stroke-width=".6"/><rect x="203" y="52" width="181" height="108" rx="4" fill="url(#mat-bezel)"/><rect x="205" y="54" width="177" height="104" rx="3" fill="url(#mat-glass)" stroke="#080f10"/><rect x="205.5" y="54.5" width="176" height="103" rx="3" fill="url(#mat-pixels)"/><path d="M208 55H379" stroke="#03090b" stroke-width="2"/><path d="M206 57V155" stroke="#03090b" stroke-width="1.4"/><path d="M208 159.5H379" stroke="#81908b" stroke-opacity=".32" stroke-width=".7"/><rect x="207" y="56" width="173" height="100" rx="2" fill="url(#mat-reflection)"/>
<text x="217" y="73" font-size="13" fill="#8d979a" text-anchor="start" font-weight="400">REPOSITORIES</text>
<rect x="214" y="81" width="159" height="43" rx="2" fill="#080d0b" stroke="#30372e"/>
<path d="M216 82H371" stroke="#030505"/>
<g role="img" aria-label="3"><title>3</title><g transform="translate(220 86) scale(1.0)" aria-hidden="true"><g transform="translate(0 0)"><path d="M3 1H17L14 4H6Z" fill="#292b23"/><path d="M18 2V16L15 14V5Z" fill="#292b23"/><path d="M18 18V32L15 29V20Z" fill="#292b23"/><path d="M3 33H17L14 30H6Z" fill="#292b23"/><path d="M2 18V32L5 29V20Z" fill="#292b23"/><path d="M2 2V16L5 14V5Z" fill="#292b23"/><path d="M3 17L6 14.8H14L17 17L14 19.2H6Z" fill="#292b23"/></g><g transform="translate(24 0)"><path d="M3 1H17L14 4H6Z" fill="#292b23"/><path d="M18 2V16L15 14V5Z" fill="#292b23"/><path d="M18 18V32L15 29V20Z" fill="#292b23"/><path d="M3 33H17L14 30H6Z" fill="#292b23"/><path d="M2 18V32L5 29V20Z" fill="#292b23"/><path d="M2 2V16L5 14V5Z" fill="#292b23"/><path d="M3 17L6 14.8H14L17 17L14 19.2H6Z" fill="#292b23"/></g><g transform="translate(48 0)"><path d="M3 1H17L14 4H6Z" fill="#292b23"/><path d="M18 2V16L15 14V5Z" fill="#292b23"/><path d="M18 18V32L15 29V20Z" fill="#292b23"/><path d="M3 33H17L14 30H6Z" fill="#292b23"/><path d="M2 18V32L5 29V20Z" fill="#292b23"/><path d="M2 2V16L5 14V5Z" fill="#292b23"/><path d="M3 17L6 14.8H14L17 17L14 19.2H6Z" fill="#292b23"/></g><g transform="translate(72 0)"><path d="M3 1H17L14 4H6Z" fill="url(#led-active)" stroke="#f3ca80" stroke-width=".24"/><path d="M18 2V16L15 14V5Z" fill="url(#led-active)" stroke="#f3ca80" stroke-width=".24"/><path d="M18 18V32L15 29V20Z" fill="url(#led-active)" stroke="#f3ca80" stroke-width=".24"/><path d="M3 33H17L14 30H6Z" fill="url(#led-active)" stroke="#f3ca80" stroke-width=".24"/><path d="M2 18V32L5 29V20Z" fill="#292b23"/><path d="M2 2V16L5 14V5Z" fill="#292b23"/><path d="M3 17L6 14.8H14L17 17L14 19.2H6Z" fill="url(#led-active)" stroke="#f3ca80" stroke-width=".24"/></g></g></g>
<path d="M217 126H370" stroke="#343c32"/>
<text x="217" y="148" font-size="11" fill="#8d979a" text-anchor="start" font-weight="400">public / non-fork</text>
<rect x="389" y="51" width="183" height="110" rx="5" fill="#080f13" stroke="#34454d" stroke-width=".6"/><rect x="390" y="52" width="181" height="108" rx="4" fill="url(#mat-bezel)"/><rect x="392" y="54" width="177" height="104" rx="3" fill="url(#mat-glass)" stroke="#080f10"/><rect x="392.5" y="54.5" width="176" height="103" rx="3" fill="url(#mat-pixels)"/><path d="M395 55H566" stroke="#03090b" stroke-width="2"/><path d="M393 57V155" stroke="#03090b" stroke-width="1.4"/><path d="M395 159.5H566" stroke="#81908b" stroke-opacity=".32" stroke-width=".7"/><rect x="394" y="56" width="173" height="100" rx="2" fill="url(#mat-reflection)"/>
<text x="404" y="73" font-size="13" fill="#8d979a" text-anchor="start" font-weight="400">FOLLOWERS</text>
<rect x="401" y="81" width="159" height="43" rx="2" fill="#080d0b" stroke="#30372e"/>
<path d="M403 82H558" stroke="#030505"/>
<g role="img" aria-label="10"><title>10</title><g transform="translate(407 86) scale(1.0)" aria-hidden="true"><g transform="translate(0 0)"><path d="M3 1H17L14 4H6Z" fill="#292b23"/><path d="M18 2V16L15 14V5Z" fill="#292b23"/><path d="M18 18V32L15 29V20Z" fill="#292b23"/><path d="M3 33H17L14 30H6Z" fill="#292b23"/><path d="M2 18V32L5 29V20Z" fill="#292b23"/><path d="M2 2V16L5 14V5Z" fill="#292b23"/><path d="M3 17L6 14.8H14L17 17L14 19.2H6Z" fill="#292b23"/></g><g transform="translate(24 0)"><path d="M3 1H17L14 4H6Z" fill="#292b23"/><path d="M18 2V16L15 14V5Z" fill="#292b23"/><path d="M18 18V32L15 29V20Z" fill="#292b23"/><path d="M3 33H17L14 30H6Z" fill="#292b23"/><path d="M2 18V32L5 29V20Z" fill="#292b23"/><path d="M2 2V16L5 14V5Z" fill="#292b23"/><path d="M3 17L6 14.8H14L17 17L14 19.2H6Z" fill="#292b23"/></g><g transform="translate(48 0)"><path d="M3 1H17L14 4H6Z" fill="#292b23"/><path d="M18 2V16L15 14V5Z" fill="url(#led-active)" stroke="#f3ca80" stroke-width=".24"/><path d="M18 18V32L15 29V20Z" fill="url(#led-active)" stroke="#f3ca80" stroke-width=".24"/><path d="M3 33H17L14 30H6Z" fill="#292b23"/><path d="M2 18V32L5 29V20Z" fill="#292b23"/><path d="M2 2V16L5 14V5Z" fill="#292b23"/><path d="M3 17L6 14.8H14L17 17L14 19.2H6Z" fill="#292b23"/></g><g transform="translate(72 0)"><path d="M3 1H17L14 4H6Z" fill="url(#led-active)" stroke="#f3ca80" stroke-width=".24"/><path d="M18 2V16L15 14V5Z" fill="url(#led-active)" stroke="#f3ca80" stroke-width=".24"/><path d="M18 18V32L15 29V20Z" fill="url(#led-active)" stroke="#f3ca80" stroke-width=".24"/><path d="M3 33H17L14 30H6Z" fill="url(#led-active)" stroke="#f3ca80" stroke-width=".24"/><path d="M2 18V32L5 29V20Z" fill="url(#led-active)" stroke="#f3ca80" stroke-width=".24"/><path d="M2 2V16L5 14V5Z" fill="url(#led-active)" stroke="#f3ca80" stroke-width=".24"/><path d="M3 17L6 14.8H14L17 17L14 19.2H6Z" fill="#292b23"/></g></g></g>
<path d="M404 126H557" stroke="#343c32"/>
<text x="404" y="148" font-size="11" fill="#8d979a" text-anchor="start" font-weight="400">GitHub accounts</text>
<rect x="576" y="51" width="183" height="110" rx="5" fill="#080f13" stroke="#34454d" stroke-width=".6"/><rect x="577" y="52" width="181" height="108" rx="4" fill="url(#mat-bezel)"/><rect x="579" y="54" width="177" height="104" rx="3" fill="url(#mat-glass)" stroke="#080f10"/><rect x="579.5" y="54.5" width="176" height="103" rx="3" fill="url(#mat-pixels)"/><path d="M582 55H753" stroke="#03090b" stroke-width="2"/><path d="M580 57V155" stroke="#03090b" stroke-width="1.4"/><path d="M582 159.5H753" stroke="#81908b" stroke-opacity=".32" stroke-width=".7"/><rect x="581" y="56" width="173" height="100" rx="2" fill="url(#mat-reflection)"/>
<text x="591" y="73" font-size="13" fill="#8d979a" text-anchor="start" font-weight="400">COMMITS / 90d</text>
<rect x="588" y="81" width="159" height="43" rx="2" fill="#080d0b" stroke="#30372e"/>
<path d="M590 82H745" stroke="#030505"/>
<text x="594" y="117" font-size="34" fill="#e6ad59" text-anchor="start" font-weight="700">N/A</text>
<path d="M591 126H744" stroke="#343c32"/>
<text x="591" y="148" font-size="11" fill="#8d979a" text-anchor="start" font-weight="400">public events only</text>
<rect x="763" y="51" width="183" height="110" rx="5" fill="#080f13" stroke="#34454d" stroke-width=".6"/><rect x="764" y="52" width="181" height="108" rx="4" fill="url(#mat-bezel)"/><rect x="766" y="54" width="177" height="104" rx="3" fill="url(#mat-glass)" stroke="#080f10"/><rect x="766.5" y="54.5" width="176" height="103" rx="3" fill="url(#mat-pixels)"/><path d="M769 55H940" stroke="#03090b" stroke-width="2"/><path d="M767 57V155" stroke="#03090b" stroke-width="1.4"/><path d="M769 159.5H940" stroke="#81908b" stroke-opacity=".32" stroke-width=".7"/><rect x="768" y="56" width="173" height="100" rx="2" fill="url(#mat-reflection)"/>
<text x="778" y="73" font-size="13" fill="#8d979a" text-anchor="start" font-weight="400">STREAK / DAYS</text>
<rect x="775" y="81" width="159" height="43" rx="2" fill="#080d0b" stroke="#30372e"/>
<path d="M777 82H932" stroke="#030505"/>
<g role="img" aria-label="136"><title>136</title><g transform="translate(781 86) scale(1.0)" aria-hidden="true"><g transform="translate(0 0)"><path d="M3 1H17L14 4H6Z" fill="#292b23"/><path d="M18 2V16L15 14V5Z" fill="#292b23"/><path d="M18 18V32L15 29V20Z" fill="#292b23"/><path d="M3 33H17L14 30H6Z" fill="#292b23"/><path d="M2 18V32L5 29V20Z" fill="#292b23"/><path d="M2 2V16L5 14V5Z" fill="#292b23"/><path d="M3 17L6 14.8H14L17 17L14 19.2H6Z" fill="#292b23"/></g><g transform="translate(24 0)"><path d="M3 1H17L14 4H6Z" fill="#292b23"/><path d="M18 2V16L15 14V5Z" fill="url(#led-active)" stroke="#f3ca80" stroke-width=".24"/><path d="M18 18V32L15 29V20Z" fill="url(#led-active)" stroke="#f3ca80" stroke-width=".24"/><path d="M3 33H17L14 30H6Z" fill="#292b23"/><path d="M2 18V32L5 29V20Z" fill="#292b23"/><path d="M2 2V16L5 14V5Z" fill="#292b23"/><path d="M3 17L6 14.8H14L17 17L14 19.2H6Z" fill="#292b23"/></g><g transform="translate(48 0)"><path d="M3 1H17L14 4H6Z" fill="url(#led-active)" stroke="#f3ca80" stroke-width=".24"/><path d="M18 2V16L15 14V5Z" fill="url(#led-active)" stroke="#f3ca80" stroke-width=".24"/><path d="M18 18V32L15 29V20Z" fill="url(#led-active)" stroke="#f3ca80" stroke-width=".24"/><path d="M3 33H17L14 30H6Z" fill="url(#led-active)" stroke="#f3ca80" stroke-width=".24"/><path d="M2 18V32L5 29V20Z" fill="#292b23"/><path d="M2 2V16L5 14V5Z" fill="#292b23"/><path d="M3 17L6 14.8H14L17 17L14 19.2H6Z" fill="url(#led-active)" stroke="#f3ca80" stroke-width=".24"/></g><g transform="translate(72 0)"><path d="M3 1H17L14 4H6Z" fill="url(#led-active)" stroke="#f3ca80" stroke-width=".24"/><path d="M18 2V16L15 14V5Z" fill="#292b23"/><path d="M18 18V32L15 29V20Z" fill="url(#led-active)" stroke="#f3ca80" stroke-width=".24"/><path d="M3 33H17L14 30H6Z" fill="url(#led-active)" stroke="#f3ca80" stroke-width=".24"/><path d="M2 18V32L5 29V20Z" fill="url(#led-active)" stroke="#f3ca80" stroke-width=".24"/><path d="M2 2V16L5 14V5Z" fill="url(#led-active)" stroke="#f3ca80" stroke-width=".24"/><path d="M3 17L6 14.8H14L17 17L14 19.2H6Z" fill="url(#led-active)" stroke="#f3ca80" stroke-width=".24"/></g></g></g>
<path d="M778 126H931" stroke="#343c32"/>
<text x="778" y="148" font-size="11" fill="#8d979a" text-anchor="start" font-weight="400">contribution calendar</text>
</svg>