<svg xmlns="http://www.w3.org/2000/svg" width="960" height="137" viewBox="0 0 960 137" role="img" data-count="211" aria-labelledby="title"><title id="title">Profile visitor counter: 211</title><defs>
<linearGradient id="chassis" x1="0" y1="0" x2="0" y2="1"><stop stop-color="#2a3033"/><stop offset=".1" stop-color="#1e2427"/><stop offset=".75" stop-color="#171c1f"/><stop offset="1" stop-color="#23292c"/></linearGradient>
<linearGradient id="metal" x1="0" y1="0" x2=".9" y2="1"><stop stop-color="#c5cac9"/><stop offset=".17" stop-color="#727c80"/><stop offset=".38" stop-color="#e1dfd4"/><stop offset=".55" stop-color="#626f74"/><stop offset=".79" stop-color="#a9b0ae"/><stop offset="1" stop-color="#566269"/></linearGradient>
<linearGradient id="shell" x1="0" y1="0" x2="0" y2="1"><stop stop-color="#869296"/><stop offset=".3" stop-color="#c0c5c0"/><stop offset=".5" stop-color="#68777e"/><stop offset="1" stop-color="#39464c"/></linearGradient>
<linearGradient id="screen" x1="0" y1="0" x2=".2" y2="1"><stop stop-color="#171b17"/><stop offset=".3" stop-color="#101510"/><stop offset="1" stop-color="#0c100f"/></linearGradient>
<linearGradient id="bezel" x1="0" y1="0" x2="0" y2="1"><stop stop-color="#070a0b"/><stop offset=".8" stop-color="#111517"/><stop offset="1" stop-color="#4c5355"/></linearGradient>
<pattern id="brush" width="7" height="4" patternUnits="userSpaceOnUse"><path d="M0 .5H7M2 2.5H6" stroke="#c5cccc" stroke-opacity=".025" stroke-width=".5"/></pattern>
<pattern id="pixels" width="3" height="3" patternUnits="userSpaceOnUse"><rect width="1" height="1" fill="#e6ad59" opacity=".045"/></pattern>
<style>@keyframes blink{0%,46%{opacity:1}50%,96%{opacity:.28}100%{opacity:1}}@keyframes activity{0%,15%,35%,90%,100%{opacity:.25}17%,29%,37%,86%{opacity:1}}.rx{animation:activity 4s linear infinite}.tx{animation:activity 6s linear infinite}.cursor{animation:blink 1.8s steps(1) infinite}@media(prefers-reduced-motion:reduce){.rx,.tx,.cursor{animation:none}}</style>

<linearGradient id="mat-face" x1="0" y1="0" x2=".12" y2="1"><stop stop-color="#3c4448"/><stop offset=".025" stop-color="#272f33"/><stop offset=".3" stop-color="#242c30"/><stop offset=".82" stop-color="#1b2226"/><stop offset="1" stop-color="#252d31"/></linearGradient>
<linearGradient id="mat-edge" x1="0" y1="0" x2=".35" y2="1"><stop stop-color="#9a9d97"/><stop offset=".035" stop-color="#586368"/><stop offset=".45" stop-color="#222c31"/><stop offset="1" stop-color="#080d10"/></linearGradient>
<linearGradient id="mat-header" x1="0" y1="0" x2="0" y2="1"><stop stop-color="#40494d"/><stop offset=".07" stop-color="#343d41"/><stop offset=".65" stop-color="#282f33"/><stop offset="1" stop-color="#20272b"/></linearGradient>
<radialGradient id="mat-light" cx=".15" cy="0" r="1.1"><stop stop-color="#9ca6a3" stop-opacity=".07"/><stop offset=".6" stop-color="#9ca6a3" stop-opacity="0"/><stop offset="1" stop-color="#000609" stop-opacity=".14"/></radialGradient>
<linearGradient id="mat-screw" x1="0" y1="0" x2=".9" y2="1"><stop stop-color="#c3c8c3"/><stop offset=".2" stop-color="#737f83"/><stop offset=".45" stop-color="#acb3af"/><stop offset=".7" stop-color="#48575e"/><stop offset="1" stop-color="#26363e"/></linearGradient>
<linearGradient id="mat-bezel" x1="0" y1="0" x2=".05" y2="1"><stop stop-color="#05090b"/><stop offset=".14" stop-color="#111b20"/><stop offset=".86" stop-color="#19252a"/><stop offset="1" stop-color="#647074"/></linearGradient>
<linearGradient id="mat-glass" x1="0" y1="0" x2=".12" y2="1"><stop stop-color="#111c1d"/><stop offset=".16" stop-color="#091314"/><stop offset=".7" stop-color="#0a1313"/><stop offset="1" stop-color="#121a17"/></linearGradient>
<linearGradient id="mat-reflection" x1="0" y1="0" x2=".8" y2="1"><stop stop-color="#c4d3cd" stop-opacity=".085"/><stop offset=".3" stop-color="#c4d3cd" stop-opacity=".013"/><stop offset="1" stop-color="#c4d3cd" stop-opacity="0"/></linearGradient>
<linearGradient id="mat-phosphor" x1="0" y1="0" x2="0" y2="1"><stop stop-color="#ffe1a0"/><stop offset=".35" stop-color="#e9b666"/><stop offset="1" stop-color="#c48b3c"/></linearGradient>
<linearGradient id="mat-amber-meter" x1="0" y1="0" x2="0" y2="1"><stop stop-color="#f4cf8a"/><stop offset=".18" stop-color="#ecbc6f"/><stop offset=".62" stop-color="#d59d47"/><stop offset="1" stop-color="#98612d"/></linearGradient>
<linearGradient id="mat-counter-drum" x1="0" y1="0" x2="0" y2="1"><stop stop-color="#050a0c"/><stop offset=".22" stop-color="#263031"/><stop offset=".48" stop-color="#1c2627"/><stop offset=".51" stop-color="#111d20"/><stop offset=".77" stop-color="#1b282a"/><stop offset="1" stop-color="#060d10"/></linearGradient>
<radialGradient id="mat-led"><stop stop-color="#fff2bb"/><stop offset=".22" stop-color="#f3ca76"/><stop offset=".63" stop-color="#d89c3a"/><stop offset="1" stop-color="#6e421e"/></radialGradient>
<pattern id="mat-brush" width="73" height="6" patternUnits="userSpaceOnUse"><path d="M0 .5H73M9 2.5H42M49 4.5H71" fill="none" stroke="#dae0de" stroke-width=".3" opacity=".075"/><path d="M4 1.5H46M32 5.5H69" stroke="#030608" stroke-width=".4" opacity=".14"/></pattern>
<pattern id="mat-pixels" width="3" height="3" patternUnits="userSpaceOnUse"><path d="M0 .5H3" stroke="#050809" stroke-width=".45" opacity=".2"/><circle cx="1.5" cy="1.5" r=".22" fill="#a8b7a8" opacity=".085"/></pattern>
<pattern id="mat-grain" width="59" height="43" patternUnits="userSpaceOnUse"><circle cx="7" cy="11" r="0.16" fill="#040708" opacity="0.2"/><circle cx="24" cy="34" r="0.24" fill="#e2e4dd" opacity="0.09"/><circle cx="41" cy="14" r="0.32" fill="#e2e4dd" opacity="0.09"/><circle cx="58" cy="37" r="0.4" fill="#040708" opacity="0.2"/><circle cx="16" cy="17" r="0.16" fill="#e2e4dd" opacity="0.09"/><circle cx="33" cy="40" r="0.24" fill="#e2e4dd" opacity="0.09"/><circle cx="50" cy="20" r="0.32" fill="#040708" opacity="0.2"/><circle cx="8" cy="0" r="0.4" fill="#e2e4dd" opacity="0.09"/><circle cx="25" cy="23" r="0.16" fill="#e2e4dd" opacity="0.09"/><circle cx="42" cy="3" r="0.24" fill="#040708" opacity="0.2"/><circle cx="0" cy="26" r="0.32" fill="#e2e4dd" opacity="0.09"/><circle cx="17" cy="6" r="0.4" fill="#e2e4dd" opacity="0.09"/><circle cx="34" cy="29" r="0.16" fill="#040708" opacity="0.2"/><circle cx="51" cy="9" r="0.24" fill="#e2e4dd" opacity="0.09"/><circle cx="9" cy="32" r="0.32" fill="#e2e4dd" opacity="0.09"/><circle cx="26" cy="12" r="0.4" fill="#040708" opacity="0.2"/><circle cx="43" cy="35" r="0.16" fill="#e2e4dd" opacity="0.09"/><circle cx="1" cy="15" r="0.24" fill="#e2e4dd" opacity="0.09"/><circle cx="18" cy="38" r="0.32" fill="#040708" opacity="0.2"/><circle cx="35" cy="18" r="0.4" fill="#e2e4dd" opacity="0.09"/><circle cx="52" cy="41" r="0.16" fill="#e2e4dd" opacity="0.09"/><circle cx="10" cy="21" r="0.24" fill="#040708" opacity="0.2"/><circle cx="27" cy="1" r="0.32" fill="#e2e4dd" opacity="0.09"/><circle cx="44" cy="24" r="0.4" fill="#e2e4dd" opacity="0.09"/><circle cx="2" cy="4" r="0.16" fill="#040708" opacity="0.2"/><circle cx="19" cy="27" r="0.24" fill="#e2e4dd" opacity="0.09"/><circle cx="36" cy="7" r="0.32" fill="#e2e4dd" opacity="0.09"/><circle cx="53" cy="30" r="0.4" fill="#040708" opacity="0.2"/><circle cx="11" cy="10" r="0.16" fill="#e2e4dd" opacity="0.09"/><circle cx="28" cy="33" r="0.24" fill="#e2e4dd" opacity="0.09"/><circle cx="45" cy="13" r="0.32" fill="#040708" opacity="0.2"/><circle cx="3" cy="36" r="0.4" fill="#e2e4dd" opacity="0.09"/><circle cx="20" cy="16" r="0.16" fill="#e2e4dd" opacity="0.09"/><circle cx="37" cy="39" r="0.24" fill="#040708" opacity="0.2"/><circle cx="54" cy="19" r="0.32" fill="#e2e4dd" opacity="0.09"/><circle cx="12" cy="42" r="0.4" fill="#e2e4dd" opacity="0.09"/><circle cx="29" cy="22" r="0.16" fill="#040708" opacity="0.2"/><circle cx="46" cy="2" r="0.24" fill="#e2e4dd" opacity="0.09"/><circle cx="4" cy="25" r="0.32" fill="#e2e4dd" opacity="0.09"/><circle cx="21" cy="5" r="0.4" fill="#040708" opacity="0.2"/><circle cx="38" cy="28" r="0.16" fill="#e2e4dd" opacity="0.09"/><circle cx="55" cy="8" r="0.24" fill="#e2e4dd" opacity="0.09"/><circle cx="13" cy="31" r="0.32" fill="#040708" opacity="0.2"/><circle cx="30" cy="11" r="0.4" fill="#e2e4dd" opacity="0.09"/><circle cx="47" cy="34" r="0.16" fill="#e2e4dd" opacity="0.09"/><circle cx="5" cy="14" r="0.24" fill="#040708" opacity="0.2"/><circle cx="22" cy="37" r="0.32" fill="#e2e4dd" opacity="0.09"/><circle cx="39" cy="17" r="0.4" fill="#e2e4dd" opacity="0.09"/></pattern>
<filter id="mat-small-bloom" x="-35%" y="-45%" width="170%" height="190%" color-interpolation-filters="sRGB"><feGaussianBlur stdDeviation=".75"/></filter>

<linearGradient id="hw-flange" x1=".12" y1="0" x2=".82" y2="1"><stop stop-color="#dae1de"/><stop offset=".12" stop-color="#8f9d9e"/><stop offset=".35" stop-color="#c5d0cc"/><stop offset=".43" stop-color="#7b898d"/><stop offset=".7" stop-color="#8b9697"/><stop offset="1" stop-color="#465457"/></linearGradient>
<linearGradient id="hw-edge" x1="0" y1="0" x2="0" y2="1"><stop stop-color="#edf0e8"/><stop offset=".16" stop-color="#a1aeaf"/><stop offset=".4" stop-color="#45565e"/><stop offset=".65" stop-color="#a5b4b4"/><stop offset=".89" stop-color="#d3dbd2"/><stop offset="1" stop-color="#3a4b52"/></linearGradient>
<linearGradient id="hw-cavity" x1="0" y1="0" x2=".1" y2="1"><stop stop-color="#020507"/><stop offset=".3" stop-color="#0b1012"/><stop offset="1" stop-color="#252d30"/></linearGradient>
<linearGradient id="hw-polymer" x1="0" y1="0" x2=".2" y2="1"><stop stop-color="#263033"/><stop offset=".3" stop-color="#131b1e"/><stop offset="1" stop-color="#0c1215"/></linearGradient>
<linearGradient id="hw-gold" x1="0" y1="0" x2=".65" y2="1"><stop stop-color="#fff0b2"/><stop offset=".2" stop-color="#c1a15f"/><stop offset=".47" stop-color="#6d5128"/><stop offset=".65" stop-color="#e7c984"/><stop offset="1" stop-color="#907041"/></linearGradient>
<radialGradient id="hw-bore" cx=".38" cy=".25" r=".75"><stop stop-color="#030506"/><stop offset=".5" stop-color="#070b0c"/><stop offset=".73" stop-color="#1e292b"/><stop offset=".83" stop-color="#82908d"/><stop offset=".9" stop-color="#202b2e"/><stop offset="1" stop-color="#c3cbc4"/></radialGradient>
<pattern id="hw-machining" width="3" height="2" patternUnits="userSpaceOnUse"><path d="M0 .25H3" stroke="#edf2ea" stroke-opacity=".09" stroke-width=".35"/></pattern>
<filter id="hw-shadow" x="-.25" y="-.5" width="1.5" height="2"><feGaussianBlur stdDeviation="3"/></filter>
</defs><rect x="1" y="3" width="958" height="133" rx="6" fill="#05090c"/><rect x=".5" y=".5" width="959" height="135" rx="6" fill="url(#mat-face)" stroke="#070d11"/><rect x="1.5" y="1.5" width="957" height="133" rx="5" fill="none" stroke="url(#mat-edge)"/><rect x="3" y="3" width="954" height="129" rx="4" fill="url(#mat-light)"/><rect x="3" y="3" width="954" height="129" rx="4" fill="url(#mat-brush)"/><rect x="3" y="3" width="954" height="129" rx="4" fill="url(#mat-grain)"/><rect x="4" y="4" width="952" height="30" rx="3" fill="url(#mat-header)"/><path d="M6 35.5H954" stroke="#0d1418"/><path d="M6 36.5H954" stroke="#60696a" stroke-opacity=".32"/><path d="M8 133.5H952" stroke="#68736f" stroke-opacity=".23"/><g transform="translate(11 20)"><circle cy=".65" r="4.3" fill="#060a0d" opacity=".9"/><circle r="3.45" fill="#111a1f" stroke="#4d585d" stroke-width=".45"/><circle r="3" fill="url(#mat-screw)"/><circle r="2.2" fill="none" stroke="#d3d5c9" stroke-opacity=".23" stroke-width=".35"/><polygon points="0.000,-1.380 0.465,-0.805 1.195,-0.690 0.930,0.000 1.195,0.690 0.465,0.805 0.000,1.380 -0.465,0.805 -1.195,0.690 -0.930,0.000 -1.195,-0.690 -0.465,-0.805" fill="#0d171d" stroke="#1b2b33" stroke-width=".5"/><path d="M-1.9500000000000002 -1.7399999999999998Q0 -3.12 1.7999999999999998 -2.04" fill="none" stroke="#f2f0dd" stroke-opacity=".5" stroke-width=".45"/></g><g transform="translate(949 20)"><circle cy=".65" r="4.3" fill="#060a0d" opacity=".9"/><circle r="3.45" fill="#111a1f" stroke="#4d585d" stroke-width=".45"/><circle r="3" fill="url(#mat-screw)"/><circle r="2.2" fill="none" stroke="#d3d5c9" stroke-opacity=".23" stroke-width=".35"/><polygon points="0.000,-1.380 0.465,-0.805 1.195,-0.690 0.930,0.000 1.195,0.690 0.465,0.805 0.000,1.380 -0.465,0.805 -1.195,0.690 -0.930,0.000 -1.195,-0.690 -0.465,-0.805" fill="#0d171d" stroke="#1b2b33" stroke-width=".5"/><path d="M-1.9500000000000002 -1.7399999999999998Q0 -3.12 1.7999999999999998 -2.04" fill="none" stroke="#f2f0dd" stroke-opacity=".5" stroke-width=".45"/></g><text x="27" y="26" font-family="Consolas, 'Liberation Mono', monospace" font-size="12" fill="#8d979a" font-weight="700" letter-spacing="0.5">11 / PROFILE COUNTER</text><text x="836.2" y="26" font-family="Consolas, 'Liberation Mono', monospace" font-size="11" fill="#e6ad59" font-weight="400" letter-spacing="0">LAST SAVED COUNT</text><path d="M1 39L959 39" stroke="#080c0d" stroke-width="1" fill="none"/><path d="M1 40L959 40" stroke="#394246" stroke-width="1" fill="none"/><text x="28" y="75" font-family="Consolas, 'Liberation Mono', monospace" font-size="11" fill="#8d979a" font-weight="700" letter-spacing="1">VISITORS</text><text x="28" y="98" font-family="Consolas, 'Liberation Mono', monospace" font-size="12" fill="#dfddd4" font-weight="400" letter-spacing="0">lordware / github</text><rect x="599" y="58" width="35" height="52" rx="4" fill="#080f13" stroke="#34454d" stroke-width=".6"/><rect x="600" y="59" width="33" height="50" rx="3" fill="url(#mat-bezel)"/><rect x="602" y="61" width="29" height="46" rx="2" fill="url(#mat-glass)" stroke="#080f10"/><rect x="602.5" y="61.5" width="28" height="45" rx="2" fill="url(#mat-pixels)"/><path d="M604 62H629" stroke="#03090b" stroke-width="2"/><path d="M603 63V105" stroke="#03090b" stroke-width="1.4"/><path d="M604 108.5H629" stroke="#81908b" stroke-opacity=".32" stroke-width=".7"/><rect x="604" y="63" width="25" height="42" rx="1" fill="url(#mat-reflection)"/><rect x="604" y="63" width="25" height="42" rx="1" fill="url(#mat-counter-drum)" stroke="none"/><text x="606" y="95" font-family="Consolas, 'Liberation Mono', monospace" font-size="31" fill="#e6ad59" font-weight="700" letter-spacing="0">0</text><path d="M604 84L629 84" stroke="#060d10" stroke-width="0.8" fill="none"/><path d="M604 84.8L629 84.8" stroke="#717d73" stroke-width="0.3" fill="none"/><rect x="632" y="58" width="35" height="52" rx="4" fill="#080f13" stroke="#34454d" stroke-width=".6"/><rect x="633" y="59" width="33" height="50" rx="3" fill="url(#mat-bezel)"/><rect x="635" y="61" width="29" height="46" rx="2" fill="url(#mat-glass)" stroke="#080f10"/><rect x="635.5" y="61.5" width="28" height="45" rx="2" fill="url(#mat-pixels)"/><path d="M637 62H662" stroke="#03090b" stroke-width="2"/><path d="M636 63V105" stroke="#03090b" stroke-width="1.4"/><path d="M637 108.5H662" stroke="#81908b" stroke-opacity=".32" stroke-width=".7"/><rect x="637" y="63" width="25" height="42" rx="1" fill="url(#mat-reflection)"/><rect x="637" y="63" width="25" height="42" rx="1" fill="url(#mat-counter-drum)" stroke="none"/><text x="639" y="95" font-family="Consolas, 'Liberation Mono', monospace" font-size="31" fill="#e6ad59" font-weight="700" letter-spacing="0">0</text><path d="M637 84L662 84" stroke="#060d10" stroke-width="0.8" fill="none"/><path d="M637 84.8L662 84.8" stroke="#717d73" stroke-width="0.3" fill="none"/><rect x="665" y="58" width="35" height="52" rx="4" fill="#080f13" stroke="#34454d" stroke-width=".6"/><rect x="666" y="59" width="33" height="50" rx="3" fill="url(#mat-bezel)"/><rect x="668" y="61" width="29" height="46" rx="2" fill="url(#mat-glass)" stroke="#080f10"/><rect x="668.5" y="61.5" width="28" height="45" rx="2" fill="url(#mat-pixels)"/><path d="M670 62H695" stroke="#03090b" stroke-width="2"/><path d="M669 63V105" stroke="#03090b" stroke-width="1.4"/><path d="M670 108.5H695" stroke="#81908b" stroke-opacity=".32" stroke-width=".7"/><rect x="670" y="63" width="25" height="42" rx="1" fill="url(#mat-reflection)"/><rect x="670" y="63" width="25" height="42" rx="1" fill="url(#mat-counter-drum)" stroke="none"/><text x="672" y="95" font-family="Consolas, 'Liberation Mono', monospace" font-size="31" fill="#e6ad59" font-weight="700" letter-spacing="0">0</text><path d="M670 84L695 84" stroke="#060d10" stroke-width="0.8" fill="none"/><path d="M670 84.8L695 84.8" stroke="#717d73" stroke-width="0.3" fill="none"/><rect x="698" y="58" width="35" height="52" rx="4" fill="#080f13" stroke="#34454d" stroke-width=".6"/><rect x="699" y="59" width="33" height="50" rx="3" fill="url(#mat-bezel)"/><rect x="701" y="61" width="29" height="46" rx="2" fill="url(#mat-glass)" stroke="#080f10"/><rect x="701.5" y="61.5" width="28" height="45" rx="2" fill="url(#mat-pixels)"/><path d="M703 62H728" stroke="#03090b" stroke-width="2"/><path d="M702 63V105" stroke="#03090b" stroke-width="1.4"/><path d="M703 108.5H728" stroke="#81908b" stroke-opacity=".32" stroke-width=".7"/><rect x="703" y="63" width="25" height="42" rx="1" fill="url(#mat-reflection)"/><rect x="703" y="63" width="25" height="42" rx="1" fill="url(#mat-counter-drum)" stroke="none"/><text x="705" y="95" font-family="Consolas, 'Liberation Mono', monospace" font-size="31" fill="#e6ad59" font-weight="700" letter-spacing="0">2</text><path d="M703 84L728 84" stroke="#060d10" stroke-width="0.8" fill="none"/><path d="M703 84.8L728 84.8" stroke="#717d73" stroke-width="0.3" fill="none"/><rect x="731" y="58" width="35" height="52" rx="4" fill="#080f13" stroke="#34454d" stroke-width=".6"/><rect x="732" y="59" width="33" height="50" rx="3" fill="url(#mat-bezel)"/><rect x="734" y="61" width="29" height="46" rx="2" fill="url(#mat-glass)" stroke="#080f10"/><rect x="734.5" y="61.5" width="28" height="45" rx="2" fill="url(#mat-pixels)"/><path d="M736 62H761" stroke="#03090b" stroke-width="2"/><path d="M735 63V105" stroke="#03090b" stroke-width="1.4"/><path d="M736 108.5H761" stroke="#81908b" stroke-opacity=".32" stroke-width=".7"/><rect x="736" y="63" width="25" height="42" rx="1" fill="url(#mat-reflection)"/><rect x="736" y="63" width="25" height="42" rx="1" fill="url(#mat-counter-drum)" stroke="none"/><text x="738" y="95" font-family="Consolas, 'Liberation Mono', monospace" font-size="31" fill="#e6ad59" font-weight="700" letter-spacing="0">1</text><path d="M736 84L761 84" stroke="#060d10" stroke-width="0.8" fill="none"/><path d="M736 84.8L761 84.8" stroke="#717d73" stroke-width="0.3" fill="none"/><rect x="764" y="58" width="35" height="52" rx="4" fill="#080f13" stroke="#34454d" stroke-width=".6"/><rect x="765" y="59" width="33" height="50" rx="3" fill="url(#mat-bezel)"/><rect x="767" y="61" width="29" height="46" rx="2" fill="url(#mat-glass)" stroke="#080f10"/><rect x="767.5" y="61.5" width="28" height="45" rx="2" fill="url(#mat-pixels)"/><path d="M769 62H794" stroke="#03090b" stroke-width="2"/><path d="M768 63V105" stroke="#03090b" stroke-width="1.4"/><path d="M769 108.5H794" stroke="#81908b" stroke-opacity=".32" stroke-width=".7"/><rect x="769" y="63" width="25" height="42" rx="1" fill="url(#mat-reflection)"/><rect x="769" y="63" width="25" height="42" rx="1" fill="url(#mat-counter-drum)" stroke="none"/><text x="771" y="95" font-family="Consolas, 'Liberation Mono', monospace" font-size="31" fill="#e6ad59" font-weight="700" letter-spacing="0">1</text><path d="M769 84L794 84" stroke="#060d10" stroke-width="0.8" fill="none"/><path d="M769 84.8L794 84.8" stroke="#717d73" stroke-width="0.3" fill="none"/><text x="28" y="122" font-family="Consolas, 'Liberation Mono', monospace" font-size="10" fill="#8d979a" font-weight="400" letter-spacing="0">SOURCE: KOMAREV  /  CACHED BETWEEN REFRESHES</text></svg>
